<svg width="175" height="35" viewBox="0 0 175 35" fill="none" xmlns="http://www.w3.org/2000/svg">
<path d="M45.1077 26.337H34.8672V1.3457H44.7345C49.4194 1.3457 52.4045 3.95491 52.4045 8.19486C52.4288 9.314 52.1148 10.4151 51.5022 11.3586C50.8896 12.3021 50.006 13.0455 48.9634 13.4948C50.912 14.2694 52.7776 16.104 52.7776 19.284C52.7776 23.8909 49.6267 26.337 45.1077 26.337ZM44.4028 4.77028H38.7229V11.9048H44.4443C46.8904 11.9048 48.5902 10.641 48.5902 8.31717C48.5902 5.99335 46.8904 4.77028 44.4028 4.77028ZM44.776 15.3294H38.7229V22.9532H44.776C47.4294 22.9532 48.9634 21.3224 48.9634 19.1209C48.9634 16.9194 47.4294 15.3294 44.776 15.3294Z" fill="#000023"/>
<path d="M66.1282 26.3357V24.5419C65.5147 25.1889 64.7692 25.7013 63.9404 26.0455C63.1117 26.3897 62.2184 26.5581 61.319 26.5396C59.6794 26.5926 58.0849 26.0065 56.8828 24.9088C55.5146 23.5635 55.0586 21.8919 55.0586 19.8943V8.56055H58.707V19.3643C58.707 22.1366 60.3239 23.3189 62.3554 23.3189C64.3869 23.3189 66.0868 22.0958 66.0868 19.3643V8.56055H69.7352V26.3357H66.1282Z" fill="#000023"/>
<path d="M82.669 12.7191C81.8398 11.9038 81.2179 11.5368 79.9741 11.5368C78.0256 11.5368 76.3672 13.086 76.3672 15.5322V26.3359H72.7188V8.56071H76.2843V10.4768C77.1964 9.21301 79.062 8.35687 81.0936 8.35687C81.892 8.31651 82.6899 8.44481 83.4337 8.73314C84.1774 9.02146 84.8497 9.46312 85.4053 10.0284L82.669 12.7191Z" fill="#000023"/>
<path d="M99.2109 24.95C98.0183 26.032 96.4375 26.6039 94.8162 26.54C92.9091 26.54 91.3751 26.0915 90.0898 24.5015V33.5114H86.4414V8.56093H90.0069V10.4363C90.5715 9.73399 91.2991 9.17499 92.1286 8.80614C92.9582 8.43728 93.8656 8.26932 94.7747 8.31632C96.6404 8.31632 98.2159 8.92785 99.2109 9.9063C100.952 11.6594 101.242 14.5132 101.242 17.4078C101.242 20.3023 100.952 23.1969 99.2109 24.95ZM93.8626 11.5371C90.5459 11.5371 90.0898 14.2686 90.0898 17.4078C90.0898 20.547 90.5459 23.3192 93.8626 23.3192C97.1794 23.3192 97.594 20.547 97.594 17.4078C97.594 14.2686 97.1379 11.5371 93.8626 11.5371Z" fill="#000023"/>
<path d="M114.719 26.5413C110.905 26.5413 108.21 25.6851 105.723 23.239L108.252 20.7521C110.117 22.5867 112.19 23.1575 114.761 23.1575C118.119 23.1575 119.985 21.7713 119.985 19.2844C119.985 18.1837 119.694 17.2868 118.99 16.6752C118.368 16.1045 117.497 15.8191 116.212 15.6153L113.227 15.2076C111.154 14.8814 109.537 14.2699 108.459 13.2099C107.215 12.1091 106.552 10.4784 106.552 8.39918C106.552 4.03692 109.744 1.10156 115.051 1.10156C118.451 1.10156 120.772 1.95771 122.928 3.95538L120.524 6.31997C118.948 4.85229 117.083 4.40384 114.927 4.40384C111.942 4.40384 110.325 5.99382 110.325 8.27687C110.305 8.70519 110.376 9.13288 110.533 9.53288C110.69 9.93288 110.929 10.2965 111.237 10.6007C111.859 11.1715 112.605 11.4976 114.015 11.7015L117.041 12.1499C119.363 12.5168 120.648 13.0061 121.726 14.0253C123.094 15.2483 123.799 16.9606 123.799 19.1214C123.882 23.8098 120.068 26.5413 114.719 26.5413Z" fill="#000023"/>
<path d="M136.859 26.3357V24.5419C136.245 25.1889 135.5 25.7013 134.671 26.0455C133.842 26.3897 132.949 26.5581 132.049 26.5396C130.41 26.5926 128.815 26.0065 127.613 24.9088C126.204 23.5635 125.789 21.8919 125.789 19.8943V8.56055H129.437V19.3643C129.437 22.1366 131.054 23.3189 133.086 23.3189C135.117 23.3189 136.817 22.0958 136.817 19.3643V8.56055H140.466V26.3357H136.859Z" fill="#000023"/>
<path d="M143.324 5.05517V1.26367H147.18V5.05517H143.324ZM143.449 26.3365V8.56129H147.097V26.3365H143.449Z" fill="#000023"/>
<path d="M155.596 26.3361C152.197 26.3361 150.663 23.9715 150.663 21.4031V11.2925H148.59V8.56094H150.663V3.46484H154.311V8.56094H157.794V11.2925H154.311V21.1993C154.311 22.5039 154.933 23.2785 156.301 23.2785H157.794V26.3361H155.596Z" fill="#000023"/>
<path d="M162.105 18.4676C162.105 21.566 163.721 23.4414 166.707 23.4414C168.738 23.4414 169.816 22.8706 171.101 21.6068L173.423 23.7268C171.557 25.5614 169.816 26.499 166.665 26.499C162.146 26.499 158.539 24.1345 158.539 17.3668C158.539 11.5777 161.566 8.27539 166.209 8.27539C171.06 8.27539 173.879 11.7 173.879 16.9184V18.4268L162.105 18.4676ZM169.733 13.5753C169.513 13.1118 169.202 12.6955 168.818 12.3503C168.434 12.0051 167.985 11.7378 167.496 11.5636C167.007 11.3893 166.488 11.3117 165.968 11.3351C165.448 11.3585 164.939 11.4825 164.468 11.7C163.624 12.0808 162.948 12.7461 162.561 13.5753C162.226 14.3332 162.071 15.1554 162.105 15.9807H170.231C170.234 15.1539 170.065 14.3352 169.733 13.5753Z" fill="#000023"/>
<path d="M26.825 1.26367H1.20312V26.4588H26.825V1.26367Z" fill="#FF6633"/>
<path d="M15.0088 22.9522H13.0187V20.0576L15.6721 16.7961H13.0187V12.8415H8.16797L13.0187 6.9708V4.72852H15.0088V7.66387L12.3139 10.8846H15.0088V14.8392H19.8595L15.0088 20.7507V22.9522Z" fill="white"/>
</svg>
