<svg width="200" height="65" viewBox="0 0 200 65" fill="none" xmlns="http://www.w3.org/2000/svg">
<path d="M41.1696 32.9172H35.6886V42.4934H32.0215V18.2363H41.1696C45.9014 18.2363 48.8982 21.3624 48.8982 25.5966C48.8982 29.8307 45.9014 32.9172 41.1696 32.9172ZM40.9725 21.5207H35.6886V29.6328H40.9725C43.5355 29.6328 45.2311 28.1291 45.2311 25.5966C45.2311 23.064 43.5749 21.5207 40.9725 21.5207Z" fill="white"/>
<path d="M61.8694 40.6324C60.4893 42.0173 58.636 42.7296 56.7039 42.6901C54.7717 42.7692 52.9185 42.0173 51.5778 40.6324C49.9611 38.9308 49.5273 36.7544 49.5273 33.8261C49.5273 30.8979 49.9217 28.761 51.5778 27.0595C52.9185 25.6745 54.7717 24.9622 56.7039 25.0018C58.636 24.9226 60.4893 25.6745 61.8694 27.0595C63.4861 28.761 63.9199 30.9374 63.9199 33.8261C63.9199 36.7148 63.4861 38.9308 61.8694 40.6324ZM59.2275 29.0776C58.5572 28.4049 57.6108 28.0487 56.7039 28.0883C55.7575 28.0487 54.8506 28.4049 54.1803 29.0776C53.1156 30.146 52.9973 31.9267 52.9973 33.8261C52.9973 35.7255 53.1156 37.5062 54.1803 38.5747C54.8506 39.2474 55.7575 39.6035 56.7039 39.6035C57.6502 39.6431 58.5572 39.2474 59.2275 38.5747C60.2922 37.5062 60.4105 35.7255 60.4105 33.8261C60.4105 31.9267 60.2922 30.146 59.2275 29.0776Z" fill="white"/>
<path d="M75.5124 29.2768C74.7238 28.4854 74.1323 28.1292 72.9494 28.1292C71.0961 28.1292 69.5188 29.6329 69.5188 32.0072V42.4935H66.0488V25.201H69.4399V27.0608C70.3074 25.8341 72.0819 25.0031 74.014 25.0031C75.5518 24.924 77.0502 25.5175 78.1149 26.6255L75.5124 29.2768Z" fill="white"/>
<path d="M85.0901 42.4547C81.8567 42.4547 80.3583 40.1596 80.3583 37.6666V27.853H78.3867V25.2017H80.3583V20.2949H83.8283V25.2413H87.1405V27.8926H83.8283V37.5083C83.8283 38.7746 84.4592 39.5265 85.721 39.5265H87.1405V42.4943L85.0901 42.4547Z" fill="white"/>
<path d="M96.7656 42.6528C93.1379 42.6528 90.5749 41.8218 88.209 39.4475L90.6143 37.0337C92.3887 38.8144 94.3997 39.3684 96.8051 39.3684C99.999 39.3684 101.773 38.023 101.773 35.6091C101.773 34.5012 101.497 33.6702 100.827 33.1162C100.236 32.5622 99.4076 32.2456 98.1852 32.0873L95.3461 31.6916C93.3745 31.375 91.8367 30.7815 90.8115 29.7526C89.6285 28.6446 88.9976 27.1014 88.9976 25.0832C88.9976 20.8491 92.0339 18 97.0811 18C100.314 18 102.523 18.831 104.573 20.77L102.286 23.1047C100.788 21.6801 99.0527 21.2448 96.9628 21.2448C94.1237 21.2448 92.5859 22.7881 92.5859 25.0041C92.507 25.8351 92.8619 26.6661 93.4534 27.2596C94.0449 27.8136 94.7941 28.1302 96.0953 28.3676L98.9738 28.7633C101.182 29.1195 102.404 29.6339 103.469 30.5836C104.77 31.7707 105.441 33.4327 105.441 35.53C105.441 40.0015 101.813 42.6528 96.7656 42.6528Z" fill="white"/>
<path d="M124.093 42.4561H121.136L117.114 30.4265L113.092 42.4561H110.095L104.771 25.2031H108.439L111.751 37.3515L115.773 25.2031H118.454L122.437 37.3515L125.749 25.2031H129.456L124.093 42.4561Z" fill="white"/>
<path d="M130.443 21.7993V18.1191H134.111V21.7993H130.443ZM130.522 42.4554V25.2024H133.992V42.4554H130.522Z" fill="white"/>
<path d="M142.7 49.6587C140.098 49.6587 138.442 49.0255 136.628 47.3635L138.836 45.1476C139.782 46.1764 141.162 46.7304 142.582 46.6908C145.5 46.6908 146.604 44.6331 146.604 42.2984V40.0824C145.342 41.5861 143.923 42.061 142.148 42.061C140.61 42.1401 139.151 41.5861 138.047 40.5177C136.391 38.8557 136.115 36.4419 136.115 33.5136C136.115 30.5854 136.391 28.1715 138.047 26.5096C138.994 25.5599 140.453 25.0059 142.188 25.0059C144.002 25.0059 145.421 25.4807 146.683 27.0636V25.2433H150.035V42.3776C150.074 46.5721 147.274 49.6587 142.7 49.6587ZM143.095 28.0924C139.98 28.0924 139.585 30.7832 139.585 33.5136C139.585 36.2441 139.98 38.9349 143.095 38.9349C146.21 38.9349 146.604 36.2441 146.604 33.5136C146.604 30.7832 146.249 28.0924 143.095 28.0924Z" fill="white"/>
<path d="M158.874 49.6587C156.272 49.6587 154.616 49.0255 152.802 47.3635L155.01 45.1476C155.956 46.1764 157.336 46.7304 158.756 46.6908C161.674 46.6908 162.778 44.6331 162.778 42.2984V40.0824C161.516 41.5861 160.097 42.061 158.322 42.061C156.784 42.1401 155.325 41.5861 154.221 40.5177C152.565 38.8557 152.289 36.4419 152.289 33.5136C152.289 30.5854 152.565 28.1715 154.221 26.5096C155.168 25.5599 156.627 25.0059 158.362 25.0059C160.175 25.0059 161.595 25.4807 162.857 27.0636V25.2433H166.208V42.3776C166.248 46.5721 163.448 49.6587 158.874 49.6587ZM159.268 28.0924C156.153 28.0924 155.759 30.7832 155.759 33.5136C155.759 36.2441 156.153 38.9349 159.268 38.9349C162.384 38.9349 162.778 36.2441 162.778 33.5136C162.778 30.7832 162.384 28.0924 159.268 28.0924Z" fill="white"/>
<path d="M171.725 34.8557C171.725 37.8631 173.263 39.6833 176.102 39.6833C178.034 39.6833 179.059 39.1293 180.282 37.9026L182.49 39.9603C180.716 41.741 179.059 42.6512 176.063 42.6512C171.765 42.6512 168.334 40.356 168.334 33.7872C168.334 28.1681 171.212 24.9629 175.629 24.9629C180.242 24.9629 182.924 28.2869 182.924 33.3124V34.7765H171.725V34.8557ZM178.981 30.1071C178.113 28.2077 175.865 27.4163 173.973 28.2869C173.184 28.643 172.514 29.3157 172.159 30.1071C171.843 30.859 171.686 31.6504 171.725 32.4418H179.454C179.493 31.6108 179.335 30.8194 178.981 30.1071Z" fill="white"/>
<path d="M194.397 29.2768C193.609 28.4854 193.017 28.1292 191.834 28.1292C189.981 28.1292 188.404 29.6329 188.404 32.0072V42.4935H184.934V25.201H188.325V27.0608C189.192 25.8341 190.967 25.0031 192.899 25.0031C194.437 24.924 195.935 25.5175 197 26.6255L194.397 29.2768Z" fill="white"/>
<path d="M14.3925 34.3037H10.8831V29.0012H4.4952L10.8831 21.087V18.1191H0V42.5741H10.8831V38.6961L14.3925 34.3037Z" fill="white"/>
<path d="M13.486 18.1191V22.0367L9.97656 26.3895H13.486V31.692H19.9133L13.486 39.6063V42.5741H24.3691V18.1191H13.486Z" fill="white"/>
</svg>
