<svg width="200" height="65" viewBox="0 0 200 65" fill="none" xmlns="http://www.w3.org/2000/svg">
<g clip-path="url(#clip0)">
<path d="M38.9401 19.0101H33.7233V28.0277H30.2578V5.18555H38.9028C43.3371 5.18555 46.2063 8.12931 46.2063 12.1164C46.2063 16.1036 43.3743 19.0101 38.9401 19.0101ZM38.7165 8.27837H33.7233V15.9173H38.7165C41.1386 15.9173 42.7409 14.5013 42.7409 12.1164C42.7409 9.73162 41.1758 8.27837 38.7165 8.27837Z" fill="white"/>
<path d="M58.466 26.2769C57.1618 27.5811 55.4105 28.2518 53.5846 28.2146C51.7587 28.2891 50.0073 27.5811 48.7404 26.2769C47.2126 24.6746 46.8027 22.6252 46.8027 19.8677C46.8027 17.1102 47.1754 15.0981 48.7404 13.4957C50.0073 12.1915 51.7587 11.5208 53.5846 11.5581C55.4105 11.4836 57.1618 12.1915 58.466 13.4957C59.9938 15.0981 60.4037 17.1475 60.4037 19.8677C60.4037 22.5879 59.9938 24.6746 58.466 26.2769ZM56.0067 15.3962C55.3732 14.7627 54.4789 14.4273 53.6218 14.4646C52.7275 14.4273 51.8705 14.7627 51.237 15.3962C50.2309 16.4023 50.1191 18.0791 50.1191 19.8677C50.1191 21.6563 50.2309 23.3331 51.237 24.3392C51.8705 24.9727 52.7275 25.3081 53.6218 25.3081C54.5161 25.3453 55.3732 24.9727 56.0067 24.3392C57.0128 23.3331 57.1246 21.6563 57.1246 19.8677C57.1246 18.0791 56.9755 16.4023 56.0067 15.3962Z" fill="white"/>
<path d="M71.3962 15.5837C70.651 14.8385 70.092 14.5031 68.9741 14.5031C67.2228 14.5031 65.7323 15.9191 65.7323 18.1549V28.0295H62.4531V11.7457H65.6577V13.497C66.4775 12.3419 68.1543 11.5593 69.9802 11.5593C71.4335 11.4848 72.8495 12.0438 73.8556 13.0871L71.3962 15.5837Z" fill="white"/>
<path d="M80.4128 27.9903C77.3573 27.9903 75.9413 25.829 75.9413 23.4814V14.2403H74.0781V11.7436H75.9413V7.12305H79.2204V11.7809H82.3505V14.2775H79.2204V23.3324C79.2204 24.5248 79.8166 25.2328 81.009 25.2328H82.3505V28.0275L80.4128 27.9903Z" fill="white"/>
<path d="M91.4435 28.1778C88.0153 28.1778 85.5932 27.3953 83.3574 25.1595L85.6305 22.8865C87.3073 24.5633 89.2077 25.085 91.4807 25.085C94.499 25.085 96.1758 23.8181 96.1758 21.545C96.1758 20.5017 95.915 19.7191 95.2815 19.1602C94.7226 18.6385 93.9401 18.3404 92.7849 18.1914L90.102 17.8187C88.2389 17.5206 86.7856 16.9617 85.8168 15.9929C84.6989 14.9495 84.1027 13.4962 84.1027 11.5958C84.1027 7.60871 86.9719 4.92578 91.7416 4.92578C94.7971 4.92578 96.8838 5.7083 98.8215 7.53418L96.6603 9.73269C95.2443 8.39123 93.6047 7.98134 91.6298 7.98134C88.9468 7.98134 87.4936 9.43459 87.4936 11.5213C87.4191 12.3038 87.7544 13.0863 88.3134 13.6453C88.8723 14.167 89.5803 14.4651 90.81 14.6887L93.5302 15.0613C95.6169 15.3966 96.772 15.8811 97.7781 16.7754C99.0078 17.8933 99.6413 19.4583 99.6413 21.4332C99.6413 25.6812 96.2504 28.1778 91.4435 28.1778Z" fill="white"/>
<path d="M117.266 27.9908H114.472L110.671 16.6628L106.907 27.9908H104.075L99.0449 11.7441H102.51L105.64 23.1838L109.441 11.7441H111.975L115.739 23.1838L118.869 11.7441H122.371L117.266 27.9908Z" fill="white"/>
<path d="M123.266 8.53967V5.07422H126.731V8.53967H123.266ZM123.377 27.9909V11.7443H126.657V27.9909H123.377Z" fill="white"/>
<path d="M134.891 34.7734C132.432 34.7734 130.866 34.1771 129.152 32.6121L131.239 30.5254C132.133 31.4942 133.438 32.0159 134.779 31.9786C137.537 31.9786 138.58 30.041 138.58 27.8425V25.7557C137.387 27.1717 136.046 27.6189 134.369 27.6189C132.916 27.6934 131.537 27.1717 130.494 26.1656C128.929 24.6006 128.668 22.3276 128.668 19.5701C128.668 16.8127 128.929 14.5396 130.494 12.9746C131.388 12.0803 132.767 11.5586 134.406 11.5586C136.121 11.5586 137.462 12.0057 138.654 13.4963V11.7822H141.822V27.917C141.822 31.8669 139.213 34.7734 134.891 34.7734ZM135.264 14.4651C132.32 14.4651 131.947 16.999 131.947 19.5701C131.947 22.1412 132.32 24.6751 135.264 24.6751C138.207 24.6751 138.58 22.1412 138.58 19.5701C138.58 16.999 138.207 14.4651 135.264 14.4651Z" fill="white"/>
<path d="M150.133 34.7734C147.674 34.7734 146.109 34.1771 144.395 32.6121L146.481 30.5254C147.376 31.4942 148.68 32.0159 150.021 31.9786C152.779 31.9786 153.822 30.041 153.822 27.8425V25.7557C152.63 27.1717 151.288 27.6189 149.611 27.6189C148.158 27.6934 146.779 27.1717 145.736 26.1656C144.171 24.6006 143.91 22.3276 143.91 19.5701C143.91 16.8127 144.171 14.5396 145.736 12.9746C146.63 12.0803 148.009 11.5586 149.649 11.5586C151.363 11.5586 152.704 12.0057 153.897 13.4963V11.7822H157.064V27.917C157.101 31.8669 154.493 34.7734 150.133 34.7734ZM150.506 14.4651C147.562 14.4651 147.189 16.999 147.189 19.5701C147.189 22.1412 147.562 24.6751 150.506 24.6751C153.449 24.6751 153.822 22.1412 153.822 19.5701C153.822 16.999 153.487 14.4651 150.506 14.4651Z" fill="white"/>
<path d="M162.316 20.8372C162.316 23.6692 163.769 25.3833 166.452 25.3833C168.278 25.3833 169.247 24.8616 170.402 23.7064L172.489 25.6441C170.812 27.3209 169.247 28.178 166.415 28.178C162.353 28.178 159.111 26.0167 159.111 19.8311C159.111 14.5398 161.832 11.5215 166.005 11.5215C170.365 11.5215 172.899 14.6516 172.899 19.4212V20.7999L162.316 20.8372ZM169.172 16.3657C168.353 14.577 166.229 13.8318 164.44 14.6516C163.695 14.9869 163.061 15.6204 162.726 16.3657C162.428 17.0737 162.279 17.8189 162.316 18.5642H169.619C169.619 17.7816 169.47 17.0364 169.172 16.3657Z" fill="white"/>
<path d="M183.707 15.5837C182.962 14.8385 182.403 14.5031 181.285 14.5031C179.533 14.5031 178.043 15.9191 178.043 18.1549V28.0295H174.764V11.7457H177.968V13.497C178.788 12.3419 180.465 11.5593 182.291 11.5593C183.744 11.4848 185.16 12.0438 186.166 13.0871L183.707 15.5837Z" fill="white"/>
<path d="M96.0636 59.8148L91.2567 50.201H86.9342V59.8148H83.4688V36.9727H92.3001C96.6226 36.9727 99.38 39.7674 99.38 43.6427C99.38 46.9218 97.4051 49.0086 94.8339 49.7166L100.088 59.8148H96.0636ZM92.0765 40.0655H86.9342V47.2199H92.0765C94.3868 47.2199 95.9518 45.9157 95.9518 43.68C95.9518 41.4442 94.3495 40.0655 92.0765 40.0655Z" fill="white"/>
<path d="M103.552 52.6224C103.552 55.4543 105.006 57.1684 107.688 57.1684C109.514 57.1684 110.483 56.6467 111.638 55.4916L113.725 57.4293C112.048 59.1061 110.483 59.9631 107.651 59.9631C103.59 59.9631 100.348 57.8019 100.348 51.6163C100.348 46.3249 103.068 43.3066 107.241 43.3066C111.601 43.3066 114.135 46.4367 114.135 51.2064V52.5851L103.552 52.6224ZM110.409 48.1508C109.589 46.3622 107.465 45.6169 105.676 46.4367C104.931 46.7721 104.298 47.4056 103.962 48.1508C103.664 48.8588 103.515 49.6041 103.552 50.3493H110.856C110.856 49.6041 110.707 48.8215 110.409 48.1508Z" fill="white"/>
<path d="M121.665 60.0001C119.019 60.0001 116.746 59.5529 114.846 57.6525L117.007 55.4913C118.311 56.8328 120.062 57.2054 121.702 57.2054C123.714 57.2054 125.242 56.4974 125.242 54.9696C125.242 53.8517 124.646 53.2183 123.081 53.0319L120.472 52.8084C117.38 52.5103 115.665 51.1688 115.665 48.3368C115.665 45.1322 118.386 43.3809 121.777 43.3809C124.236 43.3809 126.285 43.9025 127.813 45.2067L125.764 47.2935C124.72 46.4364 123.304 46.101 121.739 46.101C119.764 46.101 118.796 46.9208 118.796 48.1878C118.796 49.3057 119.429 49.9019 121.031 50.0509L123.304 50.2372C126.658 50.5353 128.447 51.9886 128.447 54.8578C128.447 58.2115 125.54 60.0001 121.665 60.0001Z" fill="white"/>
<path d="M132.73 52.6224C132.73 55.4543 134.183 57.1684 136.866 57.1684C138.692 57.1684 139.661 56.6467 140.816 55.4916L142.903 57.4293C141.226 59.1061 139.661 59.9631 136.829 59.9631C132.767 59.9631 129.525 57.8019 129.525 51.6163C129.525 46.3249 132.246 43.3066 136.419 43.3066C140.779 43.3066 143.313 46.4367 143.313 51.2064V52.5851H132.73V52.6224ZM139.586 48.1508C138.767 46.3622 136.643 45.6169 134.854 46.4367C134.109 46.7721 133.475 47.4056 133.14 48.1508C132.842 48.8588 132.693 49.6041 132.73 50.3493H140.034C140.034 49.6041 139.885 48.8215 139.586 48.1508Z" fill="white"/>
<path d="M154.156 59.8139V58.3607C152.964 59.5531 151.846 60.0375 149.833 60.0375C147.821 60.0375 146.48 59.5531 145.474 58.547C144.617 57.5782 144.132 56.3485 144.207 55.0443C144.207 52.3241 146.107 50.3492 149.833 50.3492H154.081V49.194C154.081 47.1073 153.075 46.1385 150.541 46.1385C148.827 46.1385 147.896 46.5856 147.001 47.7408L144.877 45.7286C146.368 43.94 147.97 43.3438 150.69 43.3438C155.162 43.3438 157.398 45.2814 157.398 48.9332V59.7767L154.156 59.8139ZM154.081 52.6222H150.318C148.343 52.6222 147.337 53.442 147.337 54.9698C147.337 56.4976 148.268 57.2801 150.43 57.2801C151.585 57.2801 152.516 57.1683 153.373 56.3485C153.895 55.8641 154.081 55.0816 154.081 53.9637V52.6222Z" fill="white"/>
<path d="M168.912 47.3687C168.167 46.6235 167.608 46.2881 166.49 46.2881C164.738 46.2881 163.248 47.7041 163.248 49.9399V59.8145H159.969V43.5679H163.173V45.3193C163.993 44.1641 165.67 43.3816 167.496 43.3816C168.949 43.3071 170.365 43.866 171.371 44.9094L168.912 47.3687Z" fill="white"/>
<path d="M178.041 60.0003C174.39 60.0003 170.812 57.7645 170.812 51.6534C170.812 45.5423 174.39 43.3438 178.041 43.3438C180.277 43.3438 181.842 43.9772 183.407 45.6168L181.172 47.778C180.128 46.6601 179.346 46.2503 178.079 46.2503C176.886 46.213 175.768 46.7719 175.06 47.7035C174.352 48.5978 174.092 49.753 174.092 51.6534C174.092 53.5538 174.352 54.7462 175.06 55.6405C175.768 56.5721 176.886 57.131 178.079 57.0938C179.346 57.0938 180.165 56.6839 181.172 55.566L183.407 57.7272C182.066 59.2177 180.091 60.0748 178.041 60.0003Z" fill="white"/>
<path d="M194.736 59.8148V49.9029C194.736 47.369 193.283 46.2884 191.457 46.2884C189.631 46.2884 188.103 47.4063 188.103 49.9029V59.8148H184.824V36.9727H188.103V45.1705C189.184 43.9781 190.749 43.3073 192.351 43.3446C193.842 43.3073 195.258 43.829 196.376 44.8351C197.605 46.0648 198.015 47.5926 198.015 49.4185V59.8148H194.736Z" fill="white"/>
<path d="M13.6382 20.3147H10.2846V15.3215H4.24797L10.2846 7.86893V5.07422H0V28.1027H10.2846V24.4509L13.6382 20.3147Z" fill="white"/>
<path d="M12.7441 5.07422V8.76324L9.42773 12.8622H12.7441V17.8554H18.818L12.7441 25.308V28.1027H23.0287V5.07422H12.7441Z" fill="white"/>
</g>
<defs>
<clipPath id="clip0">
<rect width="198.015" height="55" fill="white" transform="translate(0 5)"/>
</clipPath>
</defs>
</svg>
