<svg width="175" height="50" viewBox="0 0 175 50" fill="none" xmlns="http://www.w3.org/2000/svg">
<path d="M34.9681 13.1177H30.4057V20.9757H27.375V1.10352H34.9355C38.8135 1.10352 41.3229 3.66871 41.3229 7.14309C41.3229 10.6175 38.8461 13.1177 34.9681 13.1177ZM34.8052 3.79859H30.4057V10.4551H34.7726C36.8908 10.4551 38.2921 9.22122 38.2921 7.14309C38.2921 5.06496 36.9234 3.79859 34.8052 3.79859Z" fill="#000023"/>
<path d="M52.0439 19.4499C51.4844 20.005 50.8174 20.441 50.0835 20.7312C49.3496 21.0215 48.5642 21.16 47.7749 21.1384C46.9892 21.1703 46.2056 21.0364 45.4754 20.7454C44.7453 20.4544 44.0852 20.0129 43.5384 19.4499C42.2022 18.0537 41.8438 16.2678 41.8438 13.8649C41.8438 11.4621 42.1696 9.70865 43.5384 8.31241C44.6879 7.23001 46.2095 6.62695 47.7911 6.62695C49.3728 6.62695 50.8944 7.23001 52.0439 8.31241C53.3801 9.70865 53.7385 11.4945 53.7385 13.8649C53.7385 16.2353 53.3801 18.0537 52.0439 19.4499ZM49.8931 10.0009C49.6194 9.73096 49.2932 9.51969 48.9345 9.38009C48.5758 9.24048 48.1923 9.17549 47.8074 9.18912C47.4223 9.17255 47.0378 9.23618 46.6787 9.37595C46.3196 9.51572 45.9937 9.72856 45.7218 10.0009C44.8419 10.8776 44.7441 12.3388 44.7441 13.8974C44.7441 15.456 44.8419 16.9172 45.7218 17.7614C46.2802 18.3025 47.0285 18.6053 47.8074 18.6053C48.5864 18.6053 49.3347 18.3025 49.8931 17.7614C50.773 16.8847 50.8708 15.4235 50.8708 13.8974C50.8708 12.3713 50.773 10.8776 49.8931 10.0009Z" fill="#000023"/>
<path d="M63.3525 10.1306C62.7007 9.48113 62.2119 9.1889 61.2342 9.1889C59.7026 9.1889 58.399 10.4228 58.399 12.371V20.9758H55.5312V6.81853H58.3339V8.34465C59.0508 7.33806 60.5173 6.65617 62.1141 6.65617C62.7417 6.62403 63.3689 6.72621 63.9535 6.95586C64.5381 7.1855 65.0666 7.53726 65.5033 7.98748L63.3525 10.1306Z" fill="#000023"/>
<path d="M71.2393 20.9759C68.567 20.9759 67.3286 19.0926 67.3286 17.0469V8.99416H65.6992V6.81862H67.3286V2.75977H70.1964V6.81862H72.9339V8.99416H70.1964V16.8846C70.1964 17.9236 70.6853 18.5406 71.7607 18.5406H72.9339V20.9759H71.2393Z" fill="#000023"/>
<path d="M80.8842 21.1387C77.8861 21.1387 75.7678 20.4569 73.8125 18.5086L75.8004 16.5279C77.2669 17.9891 78.8963 18.4437 80.9168 18.4437C83.5564 18.4437 85.0229 17.3397 85.0229 15.3589C85.0229 14.4822 84.7948 13.7679 84.2408 13.2808C83.752 12.8262 83.0676 12.5989 82.0574 12.4366L79.711 12.1119C78.0816 11.8521 76.8106 11.365 75.9633 10.5208C74.9857 9.64408 74.4643 8.34524 74.4643 6.68923C74.4643 3.21485 76.9736 0.876953 81.1449 0.876953C83.8172 0.876953 85.6421 1.55884 87.3367 3.14991L85.4466 5.03322C84.2082 3.86427 82.7417 3.50709 81.0471 3.50709C78.7008 3.50709 77.4298 4.77345 77.4298 6.59182C77.4143 6.93296 77.47 7.2736 77.5934 7.59218C77.7168 7.91077 77.9052 8.20037 78.1468 8.44266C78.6356 8.89725 79.2222 9.15701 80.3302 9.31937L82.7091 9.67655C84.5341 9.96878 85.5443 10.3584 86.4242 11.1702C87.4997 12.1443 88.0537 13.5081 88.0537 15.2291C88.0537 18.9632 85.0881 21.1387 80.8842 21.1387Z" fill="#000023"/>
<path d="M103.467 20.9756H101.023L97.6988 11.1045L94.4074 20.9756H91.9307L87.5312 6.81836H90.562L93.2994 16.7869L96.5908 6.81836H98.8069L102.098 16.7869L104.836 6.81836H107.899L103.467 20.9756Z" fill="#000023"/>
<path d="M108.715 4.02565V1.00586H111.746V4.02565H108.715ZM108.813 20.9754V6.81814H111.68V20.9754H108.813Z" fill="#000023"/>
<path d="M118.884 26.8543C116.733 26.8543 115.364 26.3673 113.865 24.971L115.69 23.1526C116.086 23.5708 116.567 23.9 117.101 24.1184C117.635 24.3368 118.209 24.4392 118.786 24.419C121.197 24.419 122.11 22.7305 122.11 20.8147V18.9964C121.067 20.2303 119.894 20.6199 118.427 20.6199C117.805 20.6535 117.183 20.5583 116.6 20.3404C116.016 20.1224 115.485 19.7864 115.038 19.3536C113.67 17.9898 113.441 16.0091 113.441 13.6062C113.441 11.2034 113.67 9.22267 115.038 7.85889C115.82 7.07959 117.026 6.625 118.46 6.625C119.959 6.625 121.132 7.01465 122.175 8.31348V6.81983H124.945V20.8797C124.978 24.3541 122.664 26.8543 118.884 26.8543ZM119.21 9.19019C116.635 9.19019 116.309 11.3982 116.309 13.6387C116.309 15.8792 116.635 18.0872 119.21 18.0872C121.784 18.0872 122.11 15.8792 122.11 13.6387C122.11 11.3982 121.784 9.19019 119.21 9.19019Z" fill="#000023"/>
<path d="M132.243 26.8543C130.092 26.8543 128.723 26.3673 127.224 24.971L129.049 23.1526C129.445 23.5708 129.926 23.9 130.46 24.1184C130.994 24.3368 131.569 24.4392 132.145 24.419C134.557 24.419 135.469 22.7305 135.469 20.8147V18.9964C134.426 20.2303 133.253 20.6199 131.787 20.6199C131.165 20.6535 130.542 20.5583 129.959 20.3404C129.376 20.1224 128.844 19.7864 128.398 19.3536C127.029 17.9898 126.801 16.0091 126.801 13.6062C126.801 11.2034 127.029 9.22267 128.398 7.85889C129.18 7.07959 130.386 6.625 131.819 6.625C133.318 6.625 134.492 7.01465 135.534 8.31348V6.81983H138.305V20.8797C138.305 24.3541 136.023 26.8543 132.243 26.8543ZM132.569 9.19019C129.994 9.19019 129.669 11.3982 129.669 13.6387C129.669 15.8792 129.994 18.0872 132.569 18.0872C135.143 18.0872 135.469 15.8792 135.469 13.6387C135.469 11.3982 135.143 9.19019 132.569 9.19019Z" fill="#000023"/>
<path d="M142.869 14.7095C142.869 17.1773 144.14 18.6709 146.486 18.6709C148.083 18.6709 148.93 18.2164 149.941 17.2098L151.766 18.8982C150.299 20.3594 148.93 21.1063 146.454 21.1063C142.902 21.1063 140.066 19.2229 140.066 13.8328C140.066 9.22193 142.445 6.5918 146.095 6.5918C149.908 6.5918 152.124 9.31935 152.124 13.4756V14.677L142.869 14.7095ZM148.865 10.813C148.692 10.4438 148.448 10.1123 148.146 9.83733C147.845 9.56238 147.491 9.34944 147.107 9.21069C146.722 9.07195 146.314 9.01013 145.906 9.02877C145.497 9.04742 145.097 9.14616 144.727 9.31935C144.064 9.62263 143.532 10.1525 143.227 10.813C142.965 11.4166 142.842 12.0714 142.869 12.7288H149.256C149.256 12.0706 149.123 11.4192 148.865 10.813Z" fill="#000023"/>
<path d="M161.575 10.1306C160.923 9.48113 160.435 9.1889 159.457 9.1889C157.925 9.1889 156.622 10.4228 156.622 12.371V20.9758H153.754V6.81853H156.557V8.34465C157.273 7.33806 158.74 6.65617 160.337 6.65617C160.964 6.62403 161.592 6.72621 162.176 6.95586C162.761 7.1855 163.289 7.53726 163.726 7.98748L161.575 10.1306Z" fill="#000023"/>
<path d="M84.925 48.6729L80.7211 40.2954H76.9409V48.6729H73.9102V28.8008H81.6336C85.4139 28.8008 87.8254 31.2361 87.8254 34.6131C87.8254 37.4705 86.0982 39.2889 83.8496 39.9058L88.4446 48.7054H84.925V48.6729ZM81.4381 31.4959H76.9409V37.7303H81.4381C83.4586 37.7303 84.8273 36.5938 84.8273 34.6455C84.8273 32.6973 83.4586 31.4959 81.4381 31.4959Z" fill="#000023"/>
<path d="M91.4745 42.4068C91.4745 44.8746 92.7454 46.3682 95.0918 46.3682C96.6886 46.3682 97.5359 45.9136 98.5462 44.907L100.371 46.5955C98.9046 48.0567 97.5359 48.8035 95.0592 48.8035C91.5071 48.8035 88.6719 46.9202 88.6719 41.5301C88.6719 36.9192 91.0508 34.2891 94.7007 34.2891C98.5136 34.2891 100.73 37.0166 100.73 41.1729V42.3743L91.4745 42.4068ZM97.4708 38.5103C97.2978 38.1411 97.0535 37.8095 96.7517 37.5346C96.45 37.2596 96.0968 37.0467 95.7124 36.908C95.3279 36.7692 94.9198 36.7074 94.5113 36.726C94.1029 36.7447 93.7021 36.8434 93.332 37.0166C92.6692 37.3199 92.1373 37.8498 91.8329 38.5103C91.5703 39.1138 91.4477 39.7687 91.4745 40.4261H97.8618C97.8611 39.7678 97.7282 39.1164 97.4708 38.5103Z" fill="#000023"/>
<path d="M107.315 48.8355C105.001 48.8355 103.014 48.4459 101.352 46.7898L103.242 44.9065C104.382 46.0755 105.914 46.4002 107.348 46.4002C109.108 46.4002 110.444 45.7832 110.444 44.4519C110.444 43.4778 109.922 42.9258 108.554 42.7635L106.272 42.5686C103.568 42.3089 102.069 41.1399 102.069 38.6721C102.069 35.8796 104.447 34.3535 107.413 34.3535C109.564 34.3535 111.356 34.8081 112.692 35.9446L110.9 37.763C110.02 37.0161 108.749 36.7239 107.413 36.7239C105.686 36.7239 104.839 37.4382 104.839 38.5423C104.839 39.5164 105.393 40.0359 106.794 40.1658L108.782 40.3281C111.715 40.5879 113.279 41.8543 113.279 44.3545C113.246 47.3094 110.704 48.8355 107.315 48.8355Z" fill="#000023"/>
<path d="M116.994 42.4068C116.994 44.8746 118.265 46.3682 120.611 46.3682C122.208 46.3682 123.055 45.9136 124.066 44.907L125.891 46.5955C124.424 48.0567 123.055 48.8035 120.579 48.8035C117.027 48.8035 114.191 46.9202 114.191 41.5301C114.191 36.9192 116.57 34.2891 120.22 34.2891C124.033 34.2891 126.249 37.0166 126.249 41.1404V42.3418H116.994V42.4068ZM122.99 38.5103C122.817 38.1411 122.573 37.8095 122.271 37.5346C121.97 37.2596 121.616 37.0467 121.232 36.908C120.847 36.7692 120.439 36.7074 120.031 36.726C119.622 36.7447 119.222 36.8434 118.852 37.0166C118.195 37.3295 117.666 37.8565 117.352 38.5103C117.09 39.1138 116.967 39.7687 116.994 40.4261H123.381C123.381 39.7678 123.248 39.1164 122.99 38.5103Z" fill="#000023"/>
<path d="M135.731 48.6732V47.4068C134.688 48.4459 133.71 48.868 131.951 48.868C130.191 48.868 129.018 48.4459 128.138 47.5691C127.389 46.7308 126.993 45.6382 127.03 44.5169C127.03 42.1465 128.692 40.458 131.951 40.458H135.666V39.4514C135.666 37.6331 134.786 36.7888 132.57 36.7888C131.071 36.7888 130.256 37.1785 129.474 38.1851L127.616 36.4316C128.92 34.873 130.321 34.3535 132.7 34.3535C136.611 34.3535 138.566 36.042 138.566 39.2241V48.6732H135.731ZM135.698 42.4063H132.407C130.68 42.4063 129.8 43.1206 129.8 44.4519C129.8 45.7832 130.614 46.4651 132.505 46.4651C133.515 46.4651 134.33 46.3677 135.079 45.6534C135.535 45.2312 135.698 44.5494 135.698 43.5752V42.4063Z" fill="#000023"/>
<path d="M148.638 37.8278C147.986 37.1784 147.497 36.8862 146.519 36.8862C144.988 36.8862 143.684 38.1201 143.684 40.0683V48.6731H140.816V34.5158H143.619V36.0419C144.336 35.0353 145.802 34.3534 147.399 34.3534C148.027 34.3213 148.654 34.4235 149.239 34.6531C149.823 34.8828 150.352 35.2345 150.788 35.6847L148.638 37.8278Z" fill="#000023"/>
<path d="M156.654 48.8367C153.461 48.8367 150.332 46.8885 150.332 41.5633C150.332 36.238 153.461 34.3223 156.654 34.3223C158.609 34.3223 159.978 34.8743 161.347 36.303L159.392 38.1863C158.512 37.2122 157.795 36.855 156.687 36.855C156.177 36.8412 155.672 36.9489 155.213 37.1692C154.754 37.3894 154.354 37.7159 154.047 38.1214C153.428 38.9007 153.2 39.9072 153.2 41.5633C153.2 43.2193 153.428 44.2583 154.047 45.0376C154.354 45.4431 154.754 45.7695 155.213 45.9898C155.672 46.2101 156.177 46.3178 156.687 46.304C157.795 46.304 158.512 45.9468 159.392 44.9727L161.347 46.856C160.762 47.5135 160.037 48.0325 159.225 48.3752C158.413 48.7178 157.535 48.8755 156.654 48.8367Z" fill="#000023"/>
<path d="M171.219 48.6729V40.0357C171.219 37.8277 169.948 36.886 168.352 36.886C166.755 36.886 165.419 37.8601 165.419 40.0357V48.6729H162.551V28.8008H165.419V35.9444C166.35 34.9811 167.619 34.413 168.961 34.3586C170.302 34.3042 171.613 34.7675 172.621 35.6521C173.696 36.7237 174.055 38.055 174.055 39.646V48.7054L171.219 48.6729Z" fill="#000023"/>
<path d="M21.0537 1.00586H0.914062V21.0728H21.0537V1.00586Z" fill="#FF6633"/>
<path d="M12.0917 21.0728H9.90824V17.8582L12.8412 14.2864H9.90824V9.93534H4.62891L9.90824 3.44117V1.00586H12.0917V4.188L9.1587 7.79226H12.0917V12.1434H17.371L12.0917 18.6375V21.0728Z" fill="white"/>
</svg>
