<svg xmlns="http://www.w3.org/2000/svg" width="100" height="100" viewBox="0 0 100 100"><title>axa</title><rect x="12" y="12" width="76" height="76" fill="#00008f"/><polygon points="54.73 49.53 59.1 49.53 88 12 83.73 12 54.73 49.53" fill="#ff1721"/><path d="M70.07,66.28C71.39,70,74.12,79.64,75.21,80.4H68a11.4,11.4,0,0,0-.33-2.53c-.31-1.1-2.91-9.44-2.91-9.44H53.4L51.61,71s2.15,6.72,2.28,7.06c.23.59,1.26,2.37,1.26,2.37H48.31s-.18-1-.25-1.45-.64-2.28-.64-2.28a19.51,19.51,0,0,0-2,2.53c-.43.76-.62,1.2-.62,1.2H39.44s-.18-1-.25-1.45-.7-2.4-.7-2.4a26,26,0,0,0-1.93,2.62A10.88,10.88,0,0,0,36,80.4H30.63s1.52-1.43,2-2c.89-1,4.19-5.32,4.19-5.32l-1.33-4.56H24.22s-6.44,8.42-6.69,8.67a25.25,25.25,0,0,0-2.18,3.25H12V78.27l.13-.15c.11-.08,4.89-6,9.28-11.86,3.94-5.1,7.64-10.07,8-10.54a34.61,34.61,0,0,0,1.92-3.61h5.84a26.48,26.48,0,0,0,.35,2.82c.15.49,3.71,12.16,3.8,12.29l2-2.51L39.89,54.38a18,18,0,0,0-1-2.24h6.84A6.12,6.12,0,0,0,45.9,54c.28.85,1.74,6.13,1.74,6.13s4.66-5.83,4.93-6.25a4.09,4.09,0,0,0,.58-1.73h5.67a17.23,17.23,0,0,0-2.85,3L49.33,63.6l.76,2.68c.07.26.12.43.12.45.12-.15.25-.3.36-.45,1.52-2,8.59-11.2,9-12a16.46,16.46,0,0,0,1.15-2.15h5.55a14.89,14.89,0,0,0,.3,2.11Zm-8.43-8.74c-.83,1.75-5.61,7.6-5.61,7.6h7.6s-1.48-4.56-1.74-5.55a8.39,8.39,0,0,1-.15-2C61.74,57.49,61.72,57.34,61.64,57.54Zm-29.17,0c-.82,1.75-5.6,7.6-5.6,7.6h7.6S33,60.58,32.74,59.59a8.39,8.39,0,0,1-.15-2C32.57,57.49,32.56,57.34,32.47,57.54ZM43.92,75.23,46,72.36c-.19-.21-1.37-3.8-1.37-3.8l-2,2.64Z" fill="#fff"/></svg>