<svg xmlns="http://www.w3.org/2000/svg" width="122.2" height="100" viewBox="0 0 122.2 100"><title>nasa</title><circle cx="56.8" cy="50" r="50" fill="#0b3d91"/><circle cx="53.85" cy="9.6" r="0.56" fill="#fff"/><circle cx="59.61" cy="10.35" r="0.56" fill="#fff"/><circle cx="67.15" cy="20.52" r="0.56" fill="#fff"/><circle cx="25.75" cy="72.83" r="0.56" fill="#fff"/><circle cx="27.21" cy="77.32" r="0.56" fill="#fff"/><circle cx="20.26" cy="73.51" r="0.42" fill="#fff"/><circle cx="43.05" cy="82.31" r="0.42" fill="#fff"/><circle cx="78.8" cy="74.89" r="0.42" fill="#fff"/><circle cx="89.19" cy="63.6" r="0.42" fill="#fff"/><circle cx="38.27" cy="23.79" r="0.42" fill="#fff"/><circle cx="49.7" cy="15.4" r="0.42" fill="#fff"/><circle cx="48.46" cy="14.57" r="0.42" fill="#fff"/><circle cx="47.34" cy="13.75" r="0.42" fill="#fff"/><circle cx="40.06" cy="25.96" r="0.42" fill="#fff"/><circle cx="56.9" cy="4.11" r="0.42" fill="#fff"/><circle cx="59.67" cy="16.22" r="0.42" fill="#fff"/><circle cx="55.31" cy="13.85" r="0.42" fill="#fff"/><circle cx="47.83" cy="17.07" r="0.42" fill="#fff"/><circle cx="80.79" cy="85.98" r="0.42" fill="#fff"/><circle cx="25.04" cy="75.67" r="0.42" fill="#fff"/><circle cx="54.26" cy="81.09" r="0.42" fill="#fff"/><circle cx="33.74" cy="75.34" r="0.42" fill="#fff"/><circle cx="37.37" cy="81.27" r="0.42" fill="#fff"/><circle cx="64.13" cy="77.53" r="0.42" fill="#fff"/><circle cx="78.88" cy="69.21" r="0.42" fill="#fff"/><circle cx="90.06" cy="74.32" r="0.42" fill="#fff"/><circle cx="93.87" cy="76.76" r="0.42" fill="#fff"/><circle cx="94.5" cy="70.1" r="0.42" fill="#fff"/><circle cx="38.89" cy="60.69" r="0.42" fill="#fff"/><circle cx="39.05" cy="70.33" r="0.56" fill="#fff"/><circle cx="42.42" cy="77.43" r="0.56" fill="#fff"/><circle cx="82.7" cy="70.03" r="0.56" fill="#fff"/><circle cx="97.2" cy="69.21" r="0.56" fill="#fff"/><circle cx="90.02" cy="66.14" r="0.56" fill="#fff"/><circle cx="82.7" cy="66.44" r="0.56" fill="#fff"/><path d="M67.59,9.25,69,9.12,67.59,9a.6.6,0,0,0-.53-.51L66.93,7.1l-.08,1.4a.62.62,0,0,0-.48.53L65,9.2l1.43.07a.65.65,0,0,0,.49.48L67,11.18l.08-1.43A.62.62,0,0,0,67.59,9.25Z" fill="#fff"/><path d="M44.07,24.77l1.39-.13-1.39-.08a.63.63,0,0,0-.53-.52l-.14-1.38-.07,1.4a.59.59,0,0,0-.48.52l-1.43.13,1.44.08a.61.61,0,0,0,.49.47l.13,1.43.08-1.42A.67.67,0,0,0,44.07,24.77Z" fill="#fff"/><path d="M96.18,65.8l1.39-.13-1.39-.08a.63.63,0,0,0-.53-.52l-.13-1.38-.08,1.39a.63.63,0,0,0-.48.53l-1.42.13,1.43.08a.61.61,0,0,0,.49.47l.13,1.43.08-1.42A.64.64,0,0,0,96.18,65.8Z" fill="#fff"/><path d="M39.36,87.25l1.39-.13L39.36,87a.6.6,0,0,0-.53-.51L38.7,85.1l-.08,1.4a.61.61,0,0,0-.48.53l-1.42.12,1.43.08a.63.63,0,0,0,.49.48l.13,1.43.08-1.43A.62.62,0,0,0,39.36,87.25Z" fill="#fff"/><path d="M91.75,76.79l1.39-.13-1.39-.08a.63.63,0,0,0-.53-.52l-.13-1.39L91,76.07a.63.63,0,0,0-.48.53l-1.42.13,1.43.08a.64.64,0,0,0,.49.47l.13,1.43.08-1.43A.62.62,0,0,0,91.75,76.79Z" fill="#fff"/><path d="M68.66,38c-5.81,2.26-11.48,4.28-16.27,5.78C42.67,46.84,16.07,55.08,0,65.47L1.35,66c9.79-5.53,16.15-7.26,22.27-9.19,6.65-2.09,28.15-7.12,37.89-9.86,3.29-.93,7.14-2.14,11.22-3.62q-1.5-2-3-4C69.38,38.9,69,38.46,68.66,38Zm7.1,9.79c-1.41,1-2.58,1.71-3.41,2.19-4.78,2.77-28.1,18.68-33.41,22.35S18.91,89.91,14.58,94l-.15,1.64C28.4,83,32.79,79.94,38.34,75.71c6.88-5.23,21.1-14.91,25.94-18q6.93-4.45,12.53-8.19l-.19-.31c-.28-.47-.56-.93-.86-1.4Zm21.85-23c-6.81,4-17.54,8.81-27.95,12.89l.74.93C71.57,40,72.66,41.5,73.7,43c8.18-3,17.16-7.09,24.3-12-3.39,3.21-14.61,11.6-21.45,16.27.35.58.69,1.15,1,1.72C87.92,42.08,94.89,37,99,33.56c5.6-4.71,18.38-15.25,23.24-29.38C113.68,15,103.6,21.22,97.61,24.74Z" fill="#fc3d21"/><path d="M50.37,62.38c-1.1-1.39-2.63-3.25-3.77-4.69a71,71,0,0,1-4.25-5.82l-1.27.32a88.44,88.44,0,0,0,5.21,7.28c1.38,1.74,2.64,3.14,3.29,4,.13.17.39.56.74,1.09l1.22-.83Q50.94,63.1,50.37,62.38Zm8.05,7.3c-.91-.85-3.11-2.28-5.39-4.43l-1.53,1c1.5,2.13,3.5,4.69,5.06,5.43C58.94,72.8,59.58,70.78,58.42,69.68Zm12-31.12c-13.07-16.45-29-25.49-35.92-20-5.34,4.25-3.15,16.66,4.22,29.7l1.13-.38C32.4,35.15,30.36,23.34,35.4,19.33c6.34-5,21.64,4,34.33,20a94.59,94.59,0,0,1,6.89,9.86c7.49,12.4,9.79,23.61,4.62,28.18-1.59,1.4-6.43,2-12.76-.9a.39.39,0,0,0,.16.48c5.47,2.2,10.71,3,13.36.94,6.36-5,1.47-22.89-11.6-39.33Z" fill="#fff"/><path d="M14.35,40.51h8.37l7,11.92V43.12A4,4,0,0,0,28,40.51h5.8a3.66,3.66,0,0,0-1.5,2.61V56.8c0,.84,1.22,2,1.79,2.45H26l-7.13-12v9.42c0,.93.91,1.83,1.86,2.6H14.54a3.36,3.36,0,0,0,1.79-2.49c.08-.93,0-13,0-13.51C16.33,42.15,15.23,41.22,14.35,40.51Z" fill="#fff"/><path d="M90.92,59.25h11.14a3,3,0,0,1-1.69-1.85L94.1,40.51H89.86c-1.2.86-2.48,1.77-3.86,2.73v.11c-.19,1.12-3.5,13.12-3.7,13.71-.28.82-1.72,1.74-2.3,2.23h6a2.68,2.68,0,0,1-1-2.08c.11-.75.44-2.24.44-2.24h6.21a12.44,12.44,0,0,1,.6,2.06C92.4,57.79,91.61,58.65,90.92,59.25ZM86,52.58l2.09-6.84,2.76,6.84ZM85,41.19l.93-.68H84.38c.16.15.43.38.7.68Z" fill="#fff"/><path d="M42.49,57.21c.11-.75.45-2.24.45-2.24h6.2a12.44,12.44,0,0,1,.6,2.06c.13.76-.65,1.62-1.35,2.22H58.2l.61-.41a3.71,3.71,0,0,1-1-1.44L51.53,40.51H41.85c.47.43,1.82,1.59,1.61,2.84S40,56.47,39.76,57.06c-.28.82-1.72,1.74-2.3,2.23h6A2.74,2.74,0,0,1,42.49,57.21Zm3.1-11.47,2.77,6.84H43.5Z" fill="#fff"/><path d="M76.36,49.81q-2.74,1.83-5.79,3.82c.91.44,1.63,1,1.7,1.71.13,1.35-2.57,2-5,1.72a5.86,5.86,0,0,1-1.43-.35l-1.54,1L62.39,59v1.93A3.49,3.49,0,0,1,64.74,59c.36,0,1.59,1.13,6.68.85,2.46-.14,7.23-2.77,7.15-5.8A5.79,5.79,0,0,0,76.36,49.81Zm-14,4.67v2l1.33-.88a8.32,8.32,0,0,1-1.32-1.12Zm12.25-5.91c-.47-.28-1-.52-1.41-.74-2.39-1.12-4.9-1.33-5.42-2.84-.37-1.07.67-2.05,3.21-2a9.9,9.9,0,0,1,5.53,2.1V40.25c-.18.18-1,1.12-1.75,1a33.38,33.38,0,0,0-6.69-.68A6,6,0,0,0,62,46.19c-.14,4.39,3.38,5.58,5.36,6.28l.69.22c1.9-1.23,3.4-2.18,4.28-2.69.61-.34,1.38-.83,2.29-1.43Z" fill="#fff"/></svg>