<svg xmlns="http://www.w3.org/2000/svg" width="527.55" height="100" viewBox="0 0 527.55 100"><title>amazon</title><path d="M205.84,78.18C186.56,92.4,158.62,100,134.55,100A129.26,129.26,0,0,1,47.44,66.78c-1.82-1.66-.17-3.86,2-2.59,24.79,14.43,55.48,23.08,87.16,23.08A172.32,172.32,0,0,0,203,73.66c3.31-1.37,6,2.15,2.81,4.52" fill="#f90"/><path d="M213.88,69c-2.47-3.14-16.3-1.49-22.47-.78-1.88.22-2.21-1.43-.5-2.59,11-7.76,29.09-5.5,31.24-2.92s-.55,20.72-10.91,29.43c-1.6,1.32-3.09.6-2.42-1.16,2.31-5.84,7.54-18.84,5.06-22" fill="#f90"/><path d="M191.79,10.91V3.36a1.88,1.88,0,0,1,1.83-1.93h33.87a1.85,1.85,0,0,1,1.93,1.77V9.81c0,1.1-.94,2.48-2.53,4.74l-17.47,25c6.5-.16,13.39.83,19.23,4.14a3.55,3.55,0,0,1,1.82,2.92v8.1a1.8,1.8,0,0,1-1.77,1.83,1.75,1.75,0,0,1-.71-.13,38.76,38.76,0,0,0-35.65.06c-1.16.66-2.42-.66-2.42-1.71V47.05a8.9,8.9,0,0,1,1.26-5.18l20.28-29H193.83a1.91,1.91,0,0,1-2-1.82v-.11" fill="#221f1f"/><path d="M68.65,58H58.4a1.91,1.91,0,0,1-1.82-1.76V3.47a1.92,1.92,0,0,1,2-1.87H68.1A1.94,1.94,0,0,1,70,3.36v6.89h.17C72.62,3.58,77.36.5,83.64.5,90.08.5,94.1,3.58,97,10.25a15.15,15.15,0,0,1,26.06-4c3.25,4.41,2.59,10.85,2.59,16.53V56.09a2,2,0,0,1-2,1.93h-10.2a2,2,0,0,1-1.87-1.93V28.15c0-2.2.22-7.76-.28-9.86-.77-3.52-3.08-4.52-6.06-4.52a6.78,6.78,0,0,0-6.11,4.3c-1,2.65-.94,7.11-.94,10.08V56.09a2,2,0,0,1-2,1.93H85.9A2,2,0,0,1,84,56.09V28.15c0-5.89,1-14.54-6.33-14.54S70.58,22,70.58,28.15V56.09A1.85,1.85,0,0,1,68.79,58h-.14" fill="#221f1f"/><path d="M258.46.5c15.26,0,23.47,13.11,23.47,29.75,0,16.09-9.09,28.81-23.47,28.81-15,0-23.09-13.11-23.09-29.42S243.64.5,258.46.5m.11,10.74c-7.55,0-8,10.3-8,16.75s-.11,20.22,7.94,20.22,8.32-11.08,8.32-17.85c0-4.46-.17-9.75-1.55-14-1.1-3.69-3.41-5.12-6.66-5.12" fill="#221f1f"/><path d="M301.71,58H291.46a1.93,1.93,0,0,1-1.87-2h0V3.31a1.92,1.92,0,0,1,2-1.71h9.59A2,2,0,0,1,303,3.09v8h.16C306,3.91,310,.5,317.14.5c4.62,0,9.09,1.65,12,6.22,2.7,4.24,2.7,11.3,2.7,16.42V56.31a2,2,0,0,1-2,1.65h-10.3a2,2,0,0,1-1.82-1.65V27.66c0-5.79.66-14.22-6.45-14.22a6.73,6.73,0,0,0-6,4.25c-1.43,3.19-1.65,6.44-1.65,10V56a1.92,1.92,0,0,1-1.93,1.93h-.07" fill="#221f1f"/><path d="M338.24,53.77a5.07,5.07,0,1,1,5.33,4.79h-.26a4.93,4.93,0,0,1-5.07-4.79h0" fill="#221f1f"/><path d="M447.05,58a2,2,0,0,1-1.93-2V3.31a1.86,1.86,0,0,1,1.82-1.71h3.75a2,2,0,0,1,2,1.71V11c2.7-6.11,7.66-10.85,14-10.85h.77c6.72,0,11.62,5,13.44,12.12C483.75,5.12,489.09.11,496.14.11H497c5,0,9.75,3.2,12.29,8.1,2.42,4.68,2.31,10.85,2.31,16.09V56a2,2,0,0,1-1.82,1.93h-4.52a2,2,0,0,1-1.92-1.66v-32c0-3.75.16-7.77-1.33-11.19s-4.57-5.73-7.76-5.84c-3.59.17-6.89,2.81-9,6.34-2.76,4.57-2.7,8.65-2.7,14V56.42a1.9,1.9,0,0,1-1.82,1.6H476.2a2,2,0,0,1-1.93-1.93V22.26c0-3.09-.17-6.78-1.6-9.53a9.54,9.54,0,0,0-7.77-5.4c-3.25.16-6.5,2.64-8.43,5.51-2.48,3.69-3,8.21-3,12.89V56.09a2,2,0,0,1-1.9,1.91h-4.52" fill="#221f1f"/><path d="M416.14,59.06c-14.6,0-21.1-14.87-21.1-29.75C395,13.66,402.7.17,417.41.17h.77c14.27,0,21.38,14.43,21.38,29.25,0,15.76-7.88,29.59-22.65,29.59h-.38Zm1.05-7.21c4.79-.17,8.6-3.14,10.8-8.1,2-4.47,2.42-9.54,2.42-14.44,0-5.29-.55-10.85-3.08-15.43a12.51,12.51,0,0,0-10.14-6.66c-4.52.16-8.59,3.25-10.63,8-1.82,4.07-2.43,9.53-2.43,14.1,0,5.13.66,11,2.76,15.43a12.08,12.08,0,0,0,10.3,7.11" fill="#221f1f"/><path d="M370.58,51.63c6.56-.23,10-5.46,11.4-12.24a2,2,0,0,1,1.88-1.48h4.29c1.05.05,2,.82,1.88,1.76-2,11.57-9,19.39-18.9,19.39h-.77c-14.49,0-20.72-14.54-20.72-29.25S356,.22,370.47.22h.77c10,0,17.25,7.77,18.79,19.34a1.9,1.9,0,0,1-1.77,1.71l-4.51-.06A2,2,0,0,1,382,19.34c-1.1-6.45-4.79-11.63-11-11.79-9.86.33-12.61,12.39-12.61,21.76-.06,8.93,2.26,22,12.12,22.32" fill="#221f1f"/><path d="M183.2,48.32c-1.88-2.59-3.86-4.68-3.86-9.53v-16c0-6.78.49-13-4.52-17.69C170.82,1.3,164.35,0,159.34,0c-9.75,0-20.66,3.64-23,15.7a1.84,1.84,0,0,0,1.46,2.14h.09l10,1A2.23,2.23,0,0,0,149.7,17c.82-4.18,4.35-6.17,8.26-6.17a6.85,6.85,0,0,1,5.79,2.7c1.43,2.1,1.26,5,1.26,7.44v1.32c-5.95.67-13.72,1.11-19.34,3.59a17.44,17.44,0,0,0-11,16.8c0,10.69,6.72,16,15.37,16,7.28,0,11.3-1.71,16.92-7.5,1.87,2.7,2.48,4,5.89,6.84a2.2,2.2,0,0,0,2.43-.22v.05c2-1.82,5.78-5.07,7.88-6.83a2,2,0,0,0,0-2.7ZM163,43.69c-1.66,2.87-4.25,4.68-7.11,4.68-4,0-6.28-3-6.28-7.43,0-8.76,7.82-10.36,15.26-10.36v2.2C164.92,36.78,165,40.11,163,43.69Z" fill="#221f1f"/><path d="M48.54,48.32c-1.87-2.59-3.86-4.68-3.86-9.53v-16c0-6.78.5-13-4.51-17.69C36.2,1.32,29.7,0,24.68,0,14.93,0,4,3.64,1.71,15.7a1.84,1.84,0,0,0,1.46,2.14h.08l10,1A2.12,2.12,0,0,0,15,17c.82-4.18,4.35-6.17,8.26-6.17A6.92,6.92,0,0,1,29,13.55c1.43,2.1,1.26,5,1.26,7.44v1.32C24.35,23,16.58,23.42,11,25.9,4.52,28.65,0,34.33,0,42.7c0,10.69,6.72,16,15.37,16,7.33,0,11.3-1.71,16.92-7.5,1.87,2.7,2.48,4,5.89,6.84a2.2,2.2,0,0,0,2.43-.22v0c2-1.82,5.79-5.07,7.88-6.83a1.9,1.9,0,0,0,0-2.7ZM28.32,43.69c-1.65,2.87-4.24,4.68-7.11,4.68-4,0-6.22-3-6.22-7.43,0-8.76,7.82-10.36,15.26-10.36v2.2C30.25,36.8,30.36,40.11,28.32,43.69Z" fill="#221f1f"/><path d="M522.15,2.2a4.52,4.52,0,1,1-4.52,4.52,4.52,4.52,0,0,1,4.52-4.52h0m0-.88a5.4,5.4,0,1,0,5.4,5.4,5.4,5.4,0,0,0-5.4-5.4m-2,8.43h1.15V7.33h1c.44,0,.55.16.61.49,0,.11.22,1.6.22,1.93h1.26a8.74,8.74,0,0,1-.33-1.6c-.11-.77-.16-1.32-1-1.37a1.42,1.42,0,0,0,1.16-1.49c0-1.6-1.38-1.6-2.15-1.6h-2V9.75m1.16-5.07h1c.33,0,.88,0,.88.83,0,.33-.16.83-.94.83h-.93Z" fill="#221f1f"/></svg>