<svg xmlns="http://www.w3.org/2000/svg" width="218.9" height="100" viewBox="0 0 218.9 100"><title>fedex</title><polygon points="156.69 31.12 162.67 37.93 168.65 31.12 181.24 31.12 168.86 44.94 181.44 58.97 168.24 58.97 162.26 52.17 156.27 58.97 143.48 58.97 155.86 44.94 143.48 31.12 156.69 31.12" fill="#ff5900"/><polygon points="143.48 31.12 143.48 40.4 129.45 40.4 129.45 49.07 143.48 49.07 143.48 58.97 119.14 58.97 119.14 15.03 143.48 15.03 143.48 24.72 129.45 24.72 129.45 31.12 143.48 31.12" fill="#ff5900"/><path d="M108.82,15V33h-.2c-2.1-2.68-5-3.5-8.26-3.5-6.8,0-11.75,4.53-13.61,10.73-2.09-6.61-7.22-10.74-15.06-10.74-6.4,0-11.35,2.89-14,7.43v-5.8h-13V24.93H58.9V15h-26V59H44.66V40.61H56.21a13.17,13.17,0,0,0-.61,4.13c0,9.09,7,15.68,15.88,15.68,7.43,0,12.38-3.5,15.06-9.9h-9.9C75.19,52.37,74.17,53,71.48,53a6,6,0,0,1-5.78-6H86.13c.83,7.22,6.6,13.61,14.23,13.61a10.08,10.08,0,0,0,8.26-4.33h.2v2.89h10.32V15ZM66.12,40.61a5.69,5.69,0,0,1,11.14,0Zm36.52,11.56c-3.72,0-6.19-3.5-6.19-7.23,0-3.91,2.1-7.63,6.19-7.63,4.33,0,6,3.72,6,7.63S106.76,52.17,102.64,52.17Z" fill="#2a007c"/><path d="M119.14,80.84V65.16h8.66V66.4h-7.22v5.78h7v1.24h-7v6.4h7.63v1.23l-9.09-.21Z" fill="#2a007c"/><path d="M129.25,80.84l4.33-5.59-3.92-5.37h1.65l3.3,4.33,3.3-4.33h1.66l-4.13,5.37,4.33,5.59h-1.65l-3.5-4.74-3.3,4.74Z" fill="#2a007c"/><path d="M142,85h-1.2V69.91H142v1.65a3.83,3.83,0,0,1,3.5-1.86c3.3,0,4.75,2.89,4.75,5.78s-1.45,5.78-4.75,5.78A4,4,0,0,1,142,79.4Zm7-9.49c0-2.27-1-4.74-3.5-4.74s-3.3,2.06-3.3,4.74.82,4.75,3.3,4.75c2.48-.21,3.52-2.48,3.52-4.75Z" fill="#2a007c"/><path d="M157.31,70.94c-2.27,0-2.89,1.86-2.89,3.71v6.19H153.2V69.7h1.23v1.65a3.19,3.19,0,0,1,3.1-1.85h.62v1.24A1.65,1.65,0,0,1,157.31,70.94Z" fill="#2a007c"/><path d="M159.78,75.69c0,2.47,1.24,4.54,3.5,4.54a3.14,3.14,0,0,0,3.1-2.48h1.24a4.3,4.3,0,0,1-4.54,3.5c-3.3,0-4.75-2.48-4.75-5.6s1.45-6,4.95-6,4.34,3.1,4.34,6Zm0-1h6.61c0-2.09-1-3.91-3.1-3.91-1.85,0-3.29,1.22-3.51,3.87Z" fill="#2a007c"/><path d="M173,81.26c-2.26,0-3.91-1-3.91-3.5h1.23c0,1.65,1,2.47,2.68,2.47,1.45,0,2.69-.62,2.69-2.27,0-1.24-1.45-1.65-2.89-2.1-1.65-.61-3.5-1-3.5-3.09,0-2.27,2.07-3.1,3.92-3.1,2.06,0,3.71.83,3.71,3.1h-1.24c0-1.24-1-2.06-2.47-2.06-1,0-2.48.41-2.48,1.85,0,1.24,1.45,1.65,2.68,2.1,1.65.41,3.72,1,3.72,3.1C177.11,80.23,175.26,81.26,173,81.26Z" fill="#2a007c"/><path d="M182.06,81.26c-2.27,0-3.92-1-3.92-3.5h1.24c0,1.65,1,2.47,2.68,2.47,1.45,0,2.69-.62,2.69-2.27,0-1.24-1.45-1.65-2.89-2.1-1.65-.41-3.72-1-3.72-3.09,0-2.27,2.1-3.1,3.92-3.1,2.06,0,3.71.83,3.71,3.1h-1.23c0-1.24-1-2.06-2.48-2.06-1,0-2.48.41-2.48,1.85,0,1.24,1.45,1.65,2.69,2.1,1.65.41,3.71,1,3.71,3.1C186.19,80.23,184.33,81.26,182.06,81.26Z" fill="#2a007c"/></svg>