<?xml version="1.0" encoding="UTF-8"?><svg id="a" xmlns="http://www.w3.org/2000/svg" width="417.43" height="116.36" viewBox="0 0 417.43 116.36"><path d="M136.69,80.66h-16.14c2.09-1.9,2.66-8.73,3.42-21.07l.18-2.85,.76-16.14c0-3.23-.38-5.31-1.33-6.08h18.04c4.36,0,12.91,.18,12.91,9.11,0,6.08-5.54,9.68-10.63,11.01,7.21,.57,12.57,4.18,12.57,11.58,.18,7.97-7.4,14.43-19.74,14.43m-.57-22.4h-3.23l-.57,6.84-.38,8.54c0,.38,1.33,1.33,4.36,1.33,6.46,0,10.63-3.23,10.63-8.54,.18-5.88-4.94-8.13-10.82-8.13m1.33-18.22c-.95,0-2.09,0-3.23,.18-.57,3.23-.76,6.26-.95,9.87l-.18,2.66h1.14c5.88,0,11.2-2.09,11.2-7.4,.18-3.04-2.47-5.31-7.97-5.31m56.92,41c-3.99,0-4.36-.18-7.4-11.01l-1.14-3.99c-1.9,.95-5.31,1.33-10.63,1.33h-5.54l-.95,2.09c-.95,2.09-3.23,6.46-3.23,9.11-.02,.7,.05,1.4,.19,2.09h-11.01c3.04-3.04,7.21-10.44,12.72-22.17l3.23-6.84,6.08-14.24c0-.95-.18-1.71-.57-2.66h10.06l4.94,18.22,1.9,7.21c3.42,12.34,5.69,18.22,8.35,20.5l-7.02,.38m-14.43-35.69l-7.59,16.14h12.15l-4.56-16.14m58.1,37.21c-3.42,0-4.18-.57-5.31-2.09l-13.1-17.85c-.95-1.48-1.9-2.47-3.42-2.47h-.18l-.18,3.61-.57,11.39c0,3.04,.38,4.94,1.33,5.69h-12.57c1.9-1.48,2.47-6.84,3.61-21.07l.18-2.85,.76-16.14c0-3.23-.38-5.31-1.33-6.08h16.9c5.69,0,13.1,.95,13.1,9.87,0,7.4-4.94,11.39-11.01,13.29,.81,.85,1.57,1.73,2.28,2.66l9.3,12.34c5.88,7.78,6.26,8.13,8.35,9.11-2.69,.37-5.41,.56-8.13,.57m-16.7-42.34c-1.14,0-2.47,0-3.61,.18-.38,1.9-.57,5.31-.95,10.82l-.18,3.23c.57,.18,1.48,.18,2.09,.18,5.69,0,9.68-3.61,9.68-8.73-.18-3.61-2.66-5.69-7.02-5.69m41.23,41.33c-11.96,0-18.79-9.87-18.79-20.7,0-15.15,8.35-27.15,24.11-27.15,4.94,0,7.21,.95,11.39,.95l-1.14,11.77c-2.28-4.18-6.08-6.84-11.01-6.84-9.87,0-13.86,10.63-13.86,19.74,0,9.87,5.69,15.37,12.91,15.37,3.99,0,7.59-.95,13.48-5.13-2.47,7.21-7.97,11.96-17.09,11.96m81.25-.57c-3.99,0-4.18-.18-7.4-11.01l-1.14-3.99c-1.9,.95-5.31,1.33-10.63,1.33h-5.69l-.95,2.09c-1.48,3.04-3.23,6.65-3.23,9.11,0,.57,.18,1.33,.18,2.09h-32.65c1.9-2.09,2.47-8.92,3.42-21.07l.18-2.85,.76-16.14c0-3.04-.38-5.13-1.14-6.08h12.72c-1.9,1.33-2.47,8.73-3.23,21.07l-.18,2.85-.95,13.67c0,2.09,.76,2.66,3.04,2.66,7.78,0,9.49-.18,13.1-2.47,2.28-3.99,4.56-8.92,7.02-14.04l3.23-6.84,6.08-14.24c0-.95-.18-1.71-.57-2.66h10.02l4.94,18.22,1.9,7.21c3.42,12.34,5.54,18.22,8.54,20.5-2.46,.32-4.93,.51-7.4,.57m-14.43-35.69l-7.4,16.14h11.96l-4.56-16.14m43.29,10.44l-3.23,6.08c-.76,3.42-.95,7.97-.95,12.91,0,2.09,.38,4.94,1.33,5.88h-12.57c2.28-2.09,3.04-14.81,3.04-18.99-1.71-5.69-3.99-11.39-7.4-18.22-2.28-4.18-4.75-8.13-6.46-8.92l8.13-.38c3.04,0,3.99,.38,5.88,4.56l6.46,15.57,8.13-13.1c.57-1.14,1.33-2.66,1.33-3.99,0-.95-.18-2.28-.57-2.66h12.34c-2.66,.57-13.29,17.47-15.57,21.26m41.76-10.44c-1.9-3.42-6.08-6.08-10.63-6.08-3.99,0-7.4,1.48-7.4,5.69,0,3.61,4.36,5.88,8.92,8.92,4.94,3.04,10.06,6.84,10.06,13.48,0,8.54-8.35,14.04-18.22,14.04-3.99,0-8.13-.76-12.91-2.47l.76-11.39c2.28,4.56,6.46,8.13,12.72,8.13,4.75,0,8.54-2.28,8.54-6.46,0-3.42-2.85-5.69-6.46-7.78-7.59-4.56-12.34-8.13-12.34-14.81,0-9.87,8.13-13.1,16.9-13.1,4.94,0,8.13,.95,11.2,.95l-1.13,10.87h-.01Z" fill="#00aeef"/><path d="M102.29,26.18c-1.01-2.37-2.7-5.06-5.74-7.08-1.35-1.01-3.04-2.03-4.72-2.7-1.35-.37-2.7-.68-4.39-.68h-.37c-2.03,0-5.74,.37-7.76,3.37-1.01,1.01-1.35,3.04-1.01,4.72,.37,1.35,1.35,2.7,2.7,3.04,.28,.23,.64,.35,1.01,.34,0,.37-.37,1.01-.37,1.01-1.01,1.01-2.7,2.7-7.76,2.7h-.37c-2.7-.37-4.72-1.01-7.76-4.05-1.69-2.03-2.7-5.74-2.7-11.47,0-3.04-.37-5.4-1.01-7.39-.37-1.35-1.69-2.7-2.7-3.37s-1.69-1.01-3.37-1.69l-5.74-.68c-2.03,0-3.37,.37-4.05,1.35h-2.03c-1.01,0-2.37,.37-3.37,.37-2.03,.37-3.37,1.35-4.72,2.37-.37,.37-1.69,1.69-2.03,3.04,0,1.01,.37,2.03,.37,2.37l.37,.37c.68-.68,2.03-1.01,3.71-1.01,2.37,0,5.74,1.01,6.41,2.7,1.69,2.7,1.01,4.72,1.01,7.08-1.01,6.41-3.37,9.45-8.44,10.13-1.01,.37-2.03,.37-2.7,.37-3.71,0-6.41-1.01-7.76-3.37v-.68s.37,0,.68-.37c1.35-.68,2.37-1.69,2.7-3.04,.37-1.69,0-3.37-1.01-4.72-2.03-2.03-4.72-3.37-7.76-3.37-2.03,0-3.37,.37-4.72,.68-4.05,1.01-7.76,4.39-10.46,9.79-2.03,4.02-3.38,8.74-3.72,14.14s-.37,9.79,0,13.83c.37,6.75,1.69,10.8,3.37,15.15,1.69,4.35,3.7,8.44,6.06,12.16,.68,1.01,1.01,2.03,1.69,2.7l.37-.37c.37-.37,.68-.68,1.01-1.35,1.35-1.01,3.71-4.39,4.39-5.4s1.69-2.7,2.37-4.39l.37-.68,.68,.37c.68,.68,1.01,1.69,1.01,2.7s-.37,2.03-1.01,4.05c-.68,2.37-2.03,5.06-3.37,7.76,.37,.37,.37,1.01,0,1.01-1.01,1.69-1.01,2.37-1.01,3.04h.37c.37,0,1.69-.37,2.7-1.35,1.01-.68,3.71-3.04,7.08-7.76,2.7-3.37,4.39-7.08,6.41-11.14l.37-.68,.68,.37c.37,.37,.68,.37,1.01,.68,.37,.68,.37,1.69,.37,2.7-.37,2.7-2.03,6.41-3.04,9.11-2.03,4.72-5.74,9.79-8.44,13.5-.15,.48-.53,.86-1.01,1.01,.37,.37,.68,.68,1.35,1.01l1.01,1.01c3.55,2.97,7.4,5.57,11.47,7.76,3.37,2.03,10.13,5.4,14.85,6.75,4.72-1.01,11.47-4.72,14.85-6.75,4.08-2.19,7.92-4.79,11.47-7.76l1.01-1.01c.68-.37,1.01-1.01,1.35-1.01,.37-.68,.37-1.01,.37-1.35l-.37-.37c-2.7-3.37-6.41-8.77-8.44-13.5-1.01-2.7-2.7-6.41-3.04-9.11-.37-1.01,0-2.03,.37-2.7l.68-.68c.37-.37,1.01-.37,1.01-.37l.37,.68c2.03,4.05,4.05,7.76,6.41,11.14,3.37,4.72,6.07,7.08,7.08,7.76,1.01,1.01,2.03,1.35,2.7,1.35h.37c.37-.37,0-1.01-1.01-2.7-.37-.37-.37-.68-.37-1.01-1.35-2.7-2.7-5.4-3.37-7.76-.68-2.03-1.01-3.37-1.01-4.05,0-1.01,.37-2.03,1.01-2.7l.68-.37,.37,.68c.68,1.69,2.03,3.71,2.7,4.72s3.37,4.05,4.05,5.06c.68,.68,1.01,1.01,1.01,1.35l.37,.37c.37-.37,.68-1.01,1.35-2.37l.37-.37c2.03-3.37,4.05-7.76,5.74-12.15,1.69-4.05,2.7-8.44,3.37-15.15,.37-4.05,.68-8.44,0-13.83,.37-5.06-1.01-10.13-2.7-13.83l-.28-.05v.02h0Z" fill="#00aeef"/></svg>