<svg width="175" height="61" viewBox="0 0 175 61" fill="none" xmlns="http://www.w3.org/2000/svg">
<path d="M157.62 40.0238C157.543 42.0557 157.581 44.1642 157.581 46.1961C157.574 46.4013 157.587 46.6068 157.62 46.8095L157.659 47.4613L157.854 51.41L157.97 53.4035L158.009 54.0169C158.035 54.2985 158.022 54.5823 157.97 54.8604C157.92 55.1259 157.783 55.368 157.581 55.5504C157.379 55.7399 157.12 55.8608 156.843 55.8955C156.624 55.9263 156.403 55.9391 156.182 55.9338H155.676C155.454 55.9426 155.233 55.9682 155.015 56.0105L154.665 56.0488C154.51 56.0488 154.316 56.0872 154.199 56.0872L153.421 56.1255L150.35 56.2022L143.74 56.2788C143.565 56.2774 143.393 56.2381 143.235 56.1638C143.163 56.1625 143.093 56.1353 143.04 56.0872C143.02 56.0854 143.001 56.0768 142.987 56.0628C142.973 56.0487 142.964 56.0302 142.962 56.0105L142.885 55.9338C142.782 55.8137 142.714 55.6677 142.69 55.5121C142.645 55.3234 142.619 55.1308 142.613 54.937L142.574 54.362V53.0968C142.67 52.7336 142.842 52.3942 143.079 52.1001L143.507 51.5633C143.779 51.2183 144.09 50.9116 144.362 50.5666L146.073 48.6497L146.695 47.9596L146.734 47.9213H144.284C143.979 47.9297 143.675 47.8776 143.39 47.7679C143.351 47.7296 143.274 47.7296 143.235 47.6529C143.165 47.6228 143.11 47.5681 143.079 47.4996C142.992 47.3843 142.926 47.2545 142.885 47.1162C142.777 46.8214 142.724 46.5096 142.729 46.1961V43.6275C142.729 43.5892 142.729 43.5508 142.69 43.5508H142.457L141.213 43.6275C140.552 43.6659 139.891 43.7042 139.23 43.7042C139.11 43.6971 138.992 43.6712 138.88 43.6275C138.64 43.5609 138.424 43.4279 138.258 43.2441L138.18 43.1291C138.158 43.1092 138.144 43.0819 138.141 43.0525L138.102 43.0141C138.064 42.9374 138.064 42.8608 138.025 42.7841V42.5541C138.025 42.5157 138.025 42.4774 138.064 42.4774C138.102 42.3624 138.141 42.209 138.18 42.094L138.219 42.0173L138.297 41.9023L138.491 41.6723L138.841 41.2506L139.502 40.4455C139.648 40.2586 139.804 40.0794 139.969 39.9088L140.513 39.2954C140.862 38.8746 141.253 38.4894 141.679 38.1453C141.913 37.9536 142.146 37.7619 142.34 37.5702L142.768 37.1485L142.885 37.0335C142.924 36.9952 142.962 36.9568 142.962 36.9185L143.079 36.8035C143.11 36.7585 143.124 36.7042 143.118 36.6501L143.157 36.3434C143.196 36.1517 143.196 35.9217 143.235 35.73C143.262 35.3692 143.314 35.0105 143.39 34.6566C143.468 34.0432 143.585 33.6598 143.701 33.8515C143.896 34.1582 144.09 33.5065 144.284 33.5065C144.362 33.9239 144.401 34.3473 144.401 34.7716C144.401 35.155 144.44 35.5383 144.44 35.9217V36.8035C144.446 36.9325 144.433 37.0617 144.401 37.1868C144.353 37.3466 144.288 37.5008 144.207 37.6469C144.129 37.8002 144.09 37.8386 144.051 37.9152L143.935 38.1453L143.973 38.1069C143.235 39.1804 142.457 40.1772 141.641 41.1739L141.485 41.3656L141.446 41.4039L141.368 41.4806L141.252 41.634L141.213 41.7106L141.174 41.749H143.585C143.701 41.749 143.818 41.7873 143.935 41.7873C144.142 41.8358 144.331 41.9423 144.479 42.094C144.747 42.4747 144.871 42.936 144.829 43.3975V46.0811C144.868 46.1194 144.906 46.0811 144.945 46.1194L146.345 46.0811H147.745C148.214 46.0622 148.685 46.1008 149.144 46.1961C149.294 46.2439 149.437 46.3082 149.572 46.3878L149.883 46.6178C149.942 46.6465 149.994 46.6855 150.039 46.7328L150.116 46.8478L150.233 46.9629L150.35 47.1162L149.611 47.9596L148.795 48.8414L147.628 50.1449L145.917 52.0234C145.645 52.3301 145.373 52.6751 145.101 52.9818C144.96 53.1255 144.83 53.2793 144.712 53.4419C144.634 53.5185 144.634 53.5185 144.634 53.5569C144.634 53.5185 144.673 54.4387 144.673 54.2853V54.362C144.673 54.4003 144.712 54.362 144.751 54.362H144.829L150.622 54.2853L153.577 54.2086L154.277 54.1703H154.432L154.471 54.362V54.477C154.432 54.3236 154.549 54.937 154.432 54.1703H154.549L154.938 54.1319C155.22 54.0857 155.506 54.0601 155.793 54.0553H156.065C156.104 54.0553 156.143 54.0553 156.143 54.0169V53.9019L156.065 52.4451L155.91 49.4165L155.832 47.883L155.793 47.1162C155.793 46.8479 155.754 46.5412 155.754 46.3111V43.2058L155.832 37.0335L155.871 33.9665V31.7046H154.588L152.138 31.7429L142.807 31.8196L138.258 31.9346L137.092 31.973H135.925C135.148 31.973 134.37 31.973 133.631 31.9346H133.67L132.737 31.8963H131.532C131.521 31.8963 131.511 31.9003 131.504 31.9075C131.497 31.9147 131.493 31.9245 131.493 31.9346L131.454 32.3563C131.422 32.6106 131.409 32.8669 131.415 33.1231C131.415 33.6215 131.415 34.1582 131.454 34.6949L131.648 37.9919L131.921 44.5859L131.959 45.391V47.883L131.921 51.18V55.1287C131.972 55.381 131.985 55.6394 131.959 55.8955C131.93 56.0684 131.849 56.2287 131.726 56.3555C131.598 56.5029 131.439 56.6207 131.26 56.7005C130.79 56.828 130.297 56.8412 129.821 56.7389L129.432 56.7005H128.927L123.95 56.6239H122.2L121.578 56.6622L120.334 56.7389L119.129 56.8539C118.351 56.8922 117.496 57.0072 116.641 57.0839C115.785 57.1606 114.969 57.1989 114.113 57.1989L109.176 57.3139C105.871 57.3523 102.605 57.544 99.2611 57.5823H91.7572L89.2689 57.544C85.964 57.429 82.6981 57.5056 79.3933 57.6206C77.7603 57.659 76.1273 57.774 74.4944 57.889C72.8614 58.004 71.1507 58.0424 69.4788 58.004C68.7012 58.004 67.8847 58.0424 67.0682 58.0424L65.8241 58.0807H49.7665C38.4913 58.119 27.216 58.1701 15.9407 58.234C11.1973 58.2724 10.2253 58.119 9.52547 57.9273C9.17554 57.8507 8.70898 57.8123 6.95937 57.774C2.21598 57.6973 4.39327 57.429 2.64366 57.2373C2.38046 57.2084 2.12028 57.1571 1.86606 57.0839H1.94382C1.82718 57.0072 1.9827 56.9306 1.59389 56.8539C0.466367 56.6622 1.32173 56.5472 5.75408 56.5855C6.53169 56.6239 7.30929 56.5855 8.0869 56.5472C7.97026 56.2405 12.3248 56.3172 15.0465 56.3555C28.1102 56.4705 40.8241 56.2405 53.7712 56.2405H62.1693C63.569 56.2405 65.0076 56.2405 66.3295 56.2022L68.429 56.1255H70.5675C71.9283 56.1255 73.328 56.0872 74.6888 55.9721L78.8878 55.7421C81.6872 55.6271 84.5255 55.5888 87.3249 55.5888L91.5239 55.6654H95.6841C97.0838 55.6654 98.4835 55.6654 99.8443 55.6271C101.205 55.5888 102.605 55.5504 104.004 55.4738C106.804 55.3587 109.603 55.2821 112.364 55.2437C113.763 55.2054 115.124 55.1671 116.485 55.0904L117.496 55.0137C117.844 54.9677 118.195 54.9421 118.546 54.937C119.246 54.8987 119.945 54.7837 120.645 54.7837L121.578 54.7453L122.045 54.707H122.628L124.533 54.7453L128.344 54.7837H129.782C129.938 54.822 129.86 54.6687 129.899 54.5537V54.4386C129.938 54.4386 129.743 54.477 130.21 54.4003L130.443 54.362C131.182 54.247 129.743 54.4386 129.86 54.4386V47.1545C129.86 46.5412 129.86 45.9278 129.821 45.3144L129.743 43.4358L129.588 39.6404C129.588 39.3337 129.549 39.027 129.549 38.7203L129.51 37.8002L129.393 35.9217V35.9984C129.316 35.385 129.277 34.6182 129.238 33.8515V32.663C129.277 32.1646 129.354 31.6663 129.393 31.2062C129.395 31.0582 129.435 30.9131 129.51 30.7845C129.581 30.6019 129.702 30.4426 129.86 30.3245C130.02 30.1976 130.205 30.1061 130.404 30.0561C130.603 29.981 130.814 29.9421 131.026 29.9411H133.087C134.059 29.9411 135.031 29.9794 135.964 29.9794C136.431 29.9794 136.897 29.9794 137.364 29.9411L138.841 29.8644L141.757 29.7877H142.457L151.477 29.7111H151.438L154.082 29.6727L155.404 29.6344H155.949C156.144 29.628 156.339 29.6409 156.532 29.6727C156.712 29.7025 156.883 29.7677 157.037 29.8644C157.203 29.951 157.338 30.0845 157.426 30.2478C157.575 30.5348 157.667 30.847 157.698 31.1679C157.698 31.3596 157.737 31.5129 157.737 31.7046V33.1998C157.737 33.9665 157.737 34.7332 157.698 35.5C157.659 37.0335 157.62 38.567 157.62 40.1388V40.0238Z" fill="#FF6633"/>
<path d="M26.7125 24.7652H23.5632L18.7032 8.31847L13.9209 24.7652H10.7716L4.55078 1.30273H8.36105L12.5212 18.0945L17.2646 1.30273H20.1806L24.9629 18.0945L29.1231 1.30273H32.9334L26.7125 24.7652Z" fill="#000023"/>
<path d="M35.3437 17.3675C35.3437 20.2812 36.86 22.0447 39.6594 22.0447C41.5645 22.0447 42.5754 21.508 43.7807 20.3195L45.958 22.3131C44.2084 24.0382 42.5754 24.92 39.6205 24.92C35.3826 24.92 32 22.6964 32 16.3324C32 10.8885 34.8383 7.7832 39.1928 7.7832C43.7418 7.7832 46.3857 11.0035 46.3857 15.9107V17.3292L35.3437 17.3675ZM42.4977 12.7671C42.2913 12.3312 41.9998 11.9397 41.6398 11.6151C41.2798 11.2905 40.8585 11.0391 40.3998 10.8753C39.9411 10.7114 39.4542 10.6385 38.9669 10.6605C38.4796 10.6825 38.0014 10.7991 37.5599 11.0035C36.769 11.3616 36.1345 11.9873 35.7714 12.7671C35.458 13.4797 35.3118 14.2529 35.3437 15.029H42.9642C43.0016 14.2485 42.8413 13.4711 42.4977 12.7671Z" fill="#000023"/>
<path d="M60.3423 23.4617C59.2047 24.4732 57.713 25.0093 56.1821 24.9569C54.3936 24.9569 52.9939 24.4968 51.7109 22.9633V24.7269H48.3672V1.30273H51.7886V9.73695C53.0328 8.28013 54.4325 7.85842 56.221 7.85842C57.7408 7.80252 59.2216 8.33976 60.3423 9.35358C61.9753 11.0021 62.2474 13.6857 62.2474 16.4076C62.2474 19.1296 61.9753 21.8132 60.3423 23.4617ZM55.3267 10.8487C52.2163 10.8487 51.7886 13.4173 51.7886 16.3693C51.7886 19.3213 52.2163 21.9282 55.3267 21.9282C58.4372 21.9282 58.826 19.3213 58.826 16.3693C58.826 13.4173 58.3983 10.8487 55.3267 10.8487Z" fill="#000023"/>
<path d="M74.8825 24.9577C71.3055 24.9577 68.7783 24.1526 66.4844 21.8523L68.8561 19.5138C70.6057 21.2389 72.5497 21.7757 74.9603 21.7757C78.1096 21.7757 79.8592 20.4722 79.8592 18.1336C79.8592 17.0985 79.587 16.2551 78.9261 15.68C78.3429 15.1433 77.5264 14.8749 76.3211 14.6833L73.5217 14.2999C71.5777 13.9932 70.0614 13.4181 69.0505 12.4213C67.8841 11.3862 67.3009 9.85275 67.3009 7.89754C67.3009 3.79545 70.2946 1.03516 75.2713 1.03516C78.4595 1.03516 80.6368 1.84024 82.6586 3.71877L80.4035 5.94234C78.9261 4.56219 77.2153 4.14048 75.1547 4.14048C72.3553 4.14048 70.839 5.63564 70.839 7.78253C70.8204 8.1853 70.8869 8.58749 71.0341 8.96363C71.1814 9.33978 71.4062 9.68169 71.6943 9.96776C72.2775 10.5045 73.0163 10.8112 74.2993 11.0029L77.1376 11.4246C79.3149 11.7696 80.5201 12.2297 81.531 13.1881C82.8141 14.3382 83.475 15.9484 83.475 17.9803C83.475 22.3891 79.8981 24.9577 74.8825 24.9577Z" fill="#000023"/>
<path d="M88.2968 17.3675C88.2968 20.2812 89.8132 22.0447 92.6125 22.0447C94.5177 22.0447 95.5286 21.508 96.7338 20.3195L98.9111 22.3131C97.1615 24.0382 95.5286 24.92 92.5737 24.92C88.3357 24.92 84.9531 22.6964 84.9531 16.3324C84.9531 10.8885 87.7914 7.7832 92.146 7.7832C96.695 7.7832 99.3388 11.0035 99.3388 15.9107V17.3292L88.2968 17.3675ZM95.4508 12.7671C95.2445 12.3312 94.9529 11.9397 94.593 11.6151C94.233 11.2905 93.8116 11.0391 93.3529 10.8753C92.8943 10.7114 92.4073 10.6385 91.92 10.6605C91.4327 10.6825 90.9546 10.7991 90.513 11.0035C89.7222 11.3616 89.0877 11.9873 88.7245 12.7671C88.4111 13.4797 88.2649 14.2529 88.2968 15.029H95.9174C95.9356 14.2501 95.7761 13.4771 95.4508 12.7671Z" fill="#000023"/>
<path d="M108.203 24.9571C104.393 24.9571 100.66 22.6569 100.66 16.3695C100.66 10.0822 104.393 7.82031 108.203 7.82031C110.536 7.82031 112.169 8.47205 113.802 10.1589L111.469 12.3825C110.419 11.2323 109.564 10.8106 108.242 10.8106C107.634 10.7943 107.031 10.9215 106.483 11.1816C105.935 11.4416 105.459 11.8271 105.093 12.3058C104.354 13.2259 104.082 14.4143 104.082 16.3695C104.082 18.3247 104.354 19.5132 105.093 20.4716C105.459 20.9503 105.935 21.3358 106.483 21.5959C107.031 21.856 107.634 21.9831 108.242 21.9668C109.564 21.9668 110.419 21.5451 111.469 20.395L113.802 22.6185C113.103 23.3937 112.238 24.0057 111.27 24.4102C110.301 24.8148 109.254 25.0016 108.203 24.9571Z" fill="#000023"/>
<path d="M125.623 24.7659V23.079C125.048 23.6874 124.349 24.1692 123.571 24.4929C122.794 24.8166 121.957 24.975 121.113 24.9576C119.576 25.0074 118.08 24.4563 116.953 23.4241C115.67 22.1589 115.242 20.5871 115.242 18.7086V8.05078H118.664V18.2102C118.664 20.8171 120.18 21.9289 122.085 21.9289C123.99 21.9289 125.584 20.7788 125.584 18.2102V8.05078H129.006V24.7659H125.623Z" fill="#000023"/>
<path d="M141.097 11.9605C140.319 11.1937 139.736 10.8487 138.57 10.8487C136.742 10.8487 135.187 12.3055 135.187 14.6058V24.7652H131.766V8.05007H135.109V9.85193C135.965 8.66347 137.714 7.85839 139.619 7.85839C140.368 7.82044 141.116 7.94108 141.814 8.21222C142.511 8.48335 143.142 8.89867 143.663 9.43022L141.097 11.9605Z" fill="#000023"/>
<path d="M144.559 4.75287V1.1875H148.174V4.75287H144.559ZM144.636 24.765V8.04988H148.058V24.765H144.636Z" fill="#000023"/>
<path d="M156.067 24.7651C152.878 24.7651 151.401 22.5415 151.401 20.1262V10.6186H149.457V8.04998H151.401V3.25781H154.823V8.04998H158.088V10.6186H154.823V19.9346C154.823 21.1614 155.406 21.8898 156.689 21.8898H158.088V24.7651H156.067Z" fill="#000023"/>
<path d="M166.409 28.1012C166.172 28.8811 165.745 29.5919 165.165 30.1714C164.232 31.0915 162.988 31.3982 161.705 31.3982H160.344V28.3696H161.199C162.638 28.3696 163.143 27.9479 163.649 26.6061L164.582 23.9991L158.672 8.05078H162.288L166.331 19.8203L170.258 8.05078H173.913L166.409 28.1012Z" fill="#000023"/>
<path d="M20.9577 52.3687L19.3247 47.6532H9.91571L8.28274 52.3687H4.43359L13.1428 28.9062H16.0588L24.768 52.3687H20.9577ZM14.698 34.1968L11.0044 44.6246H18.3138L14.698 34.1968Z" fill="#000023"/>
<path d="M32.0779 52.5606C28.2677 52.5606 24.5352 50.2604 24.5352 43.9731C24.5352 37.6857 28.2677 35.4238 32.0779 35.4238C34.4107 35.4238 36.0437 36.0756 37.6767 37.7624L35.3439 39.986C34.2941 38.8359 33.4387 38.4141 32.1168 38.4141C31.509 38.3978 30.9061 38.525 30.3582 38.7851C29.8104 39.0452 29.3336 39.4306 28.9675 39.9093C28.2288 40.8294 27.9566 42.0178 27.9566 43.9731C27.9566 45.9283 28.2288 47.1167 28.9675 48.0752C29.3336 48.5538 29.8104 48.9393 30.3582 49.1994C30.9061 49.4595 31.509 49.5866 32.1168 49.5703C33.4387 49.5703 34.2941 49.1486 35.3439 47.9985L37.6767 50.222C36.9733 50.9913 36.1075 51.5993 35.1402 52.0034C34.173 52.4074 33.1277 52.5976 32.0779 52.5606Z" fill="#000023"/>
<path d="M48.7159 52.3682V50.8347C47.4717 52.0615 46.3053 52.5599 44.2058 52.5599C42.1062 52.5599 40.7065 52.0615 39.6568 51.0264C38.764 50.0366 38.2908 48.7466 38.3348 47.4227C38.3348 44.6241 40.3177 42.5922 44.2058 42.5922H48.6381V41.4037C48.6381 39.2568 47.5883 38.2601 44.9445 38.2601C43.156 38.2601 42.184 38.7201 41.2509 39.9086L39.0347 37.8384C40.5899 35.9982 42.2618 35.3848 45.1 35.3848C49.7656 35.3848 52.0985 37.3783 52.0985 41.1354V52.2915L48.7159 52.3682ZM48.6381 44.9691H44.7112C42.6506 44.9691 41.6008 45.8125 41.6008 47.3844C41.6008 48.9562 42.5728 49.7613 44.8279 49.7613C46.0331 49.7613 47.0051 49.6463 47.8994 48.8028C48.4437 48.3045 48.6381 47.5377 48.6381 46.3492V44.9691Z" fill="#000023"/>
<path d="M64.6576 52.3687V50.6052C63.3746 52.1003 62.0138 52.5987 60.1864 52.5987C58.656 52.6484 57.1653 52.1126 56.0262 51.1036C54.3933 49.4551 54.1211 46.7715 54.1211 44.0112C54.1211 41.2509 54.3933 38.6056 56.0262 36.9571C57.1565 35.959 58.6307 35.4242 60.1475 35.4619C61.936 35.4619 63.3357 35.8836 64.5799 37.3405V28.9062H68.0013V52.3687H64.6576ZM61.0807 38.4523C57.9702 38.4523 57.5426 41.0209 57.5426 43.9728C57.5426 46.9248 57.9702 49.5317 61.0807 49.5317C64.1911 49.5317 64.5799 46.9248 64.5799 43.9728C64.5799 41.0209 64.1522 38.4523 61.0807 38.4523Z" fill="#000023"/>
<path d="M73.4453 44.9691C73.4453 47.8827 74.9616 49.6463 77.761 49.6463C79.6661 49.6463 80.677 49.1095 81.8823 47.9211L84.0596 49.9146C82.3099 51.6398 80.677 52.5216 77.7221 52.5216C73.4841 52.5216 70.1016 50.298 70.1016 43.934C70.1016 38.4901 72.9398 35.3848 77.2944 35.3848C81.8434 35.3848 84.4872 38.6051 84.4872 43.5123V44.9308L73.4453 44.9691ZM80.5992 40.3686C80.3929 39.9328 80.1014 39.5413 79.7414 39.2167C79.3814 38.892 78.96 38.6406 78.5013 38.4768C78.0427 38.313 77.5558 38.24 77.0684 38.262C76.5811 38.284 76.103 38.4006 75.6614 38.6051C74.8706 38.9632 74.2361 39.5888 73.8729 40.3686C73.5596 41.0812 73.4134 41.8544 73.4453 42.6305H81.0658C81.065 41.8534 80.9063 41.0843 80.5992 40.3686Z" fill="#000023"/>
<path d="M107.114 52.3693V42.1716C107.114 39.5646 105.598 38.4529 103.693 38.4529C101.865 38.4529 100.193 39.603 100.193 42.0182V52.3693H96.7718V42.1716C96.7718 39.5646 95.2555 38.4529 93.3504 38.4529C91.4452 38.4529 89.8511 39.603 89.8511 42.1716V52.3693H86.4297V35.6542H89.7734V37.3411C90.3488 36.7327 91.0479 36.2509 91.8251 35.9272C92.6023 35.6035 93.44 35.4451 94.2835 35.4626C96.383 35.4626 98.016 36.2676 99.1046 37.9161C99.7337 37.1224 100.544 36.4864 101.47 36.06C102.395 35.6336 103.41 35.4289 104.431 35.4626C106.003 35.4197 107.532 35.9679 108.708 36.996C109.991 38.2612 110.497 39.833 110.497 41.7115V52.4077L107.114 52.3693Z" fill="#000023"/>
<path d="M118.507 55.7047C118.27 56.4847 117.842 57.1954 117.262 57.7749C116.329 58.695 115.085 59.0017 113.802 59.0017H112.441V55.9731H113.297C114.735 55.9731 115.241 55.5514 115.746 54.2096L116.679 51.6026L110.73 35.6543H114.346L118.39 47.4239L122.317 35.6543H125.933L118.507 55.7047Z" fill="#000023"/>
</svg>
